<svg width="293" height="190" viewBox="0 0 293 190" fill="none" xmlns="http://www.w3.org/2000/svg">
<path id="Vector" d="M211.795 182.467C212.147 181.052 213.357 181.288 214.528 181.185C215.625 179.391 217.19 177.644 217.75 175.655C218.518 173.091 218.726 170.284 217.799 167.593C215.981 162.223 214.212 156.831 212.394 151.461C212.003 150.305 211.502 149.23 211.099 148.109C210.26 145.734 208.946 143.551 208.653 141.009C208.562 140.367 208.253 139.768 208.029 139.158C206.549 135.536 205.033 131.9 203.602 128.254C202.398 125.097 200.782 122.075 200.053 118.724C199.969 118.288 199.787 117.897 199.556 117.529C197.041 113.409 195.307 108.923 193.379 104.528C191.755 100.853 190.389 97.0283 188.877 93.2719C187.849 90.747 186.772 88.2451 185.647 85.766C184.84 83.971 183.776 82.3264 183.458 80.3025C183.312 79.4779 182.827 78.693 182.365 77.957C181.314 76.2765 180.446 74.5403 179.883 72.6308C179.431 71.0863 178.676 69.5944 178.055 68.0698C176.63 64.6295 175.144 61.248 173.804 57.7978C173.218 56.286 171.767 55.1506 171.816 53.3412C170.57 51.3057 170.463 49.0337 169.982 46.7883C170.955 46.4511 171.287 47.0993 171.475 47.6955C171.664 48.2918 171.693 48.9927 171.664 49.6317C171.589 50.6195 171.953 51.4014 172.711 51.8794C173.362 52.3185 173.694 52.9667 174.149 53.4974C175.304 54.8908 175.902 56.3666 176.156 58.1234C176.208 58.4265 176.38 58.7326 176.517 59.0258C177.587 60.8758 178.706 62.7029 179.871 64.6277C180.157 64.285 180.382 64.001 180.655 63.6941C181.738 65.9549 182.847 68.1438 183.846 70.4145C184.799 72.5874 185.606 74.8289 186.484 77.0965C186.897 76.9622 187.372 76.7691 187.834 76.6119C188.918 77.5328 188.345 78.6649 188.387 79.7765C189.454 79.514 189.945 80.0577 190.111 81.0517C190.222 81.8633 190.319 82.7107 190.427 83.6429C190.768 83.4826 191.123 83.2864 191.477 83.0903C191.936 83.5003 192.369 83.9822 192.876 84.3693C193.68 84.9451 193.924 85.7238 194.008 86.6071C194.194 88.2172 194.415 89.8404 194.636 91.4635C195.013 91.3162 195.293 91.2147 195.609 91.1262C196.022 92.7783 196.022 92.7783 197.515 93.2389C198 94.4704 197.785 96.179 199.05 97.0442C200.28 97.8964 200.286 99.4416 201.513 100.414C202.668 101.361 203.185 103.173 203.93 104.58C204.079 104.837 204.092 105.248 203.988 105.535C203.803 106.158 203.38 106.654 203.721 107.387C204.437 108.987 204.908 110.701 205.832 112.173C206.515 113.192 206.945 114.241 207.384 115.375C208.226 117.629 209.277 119.757 210.266 121.942C210.471 122.382 210.907 122.743 211.339 123.225C212.882 121.43 210.663 119.732 211.551 118.064C212.192 118.865 212.823 119.582 213.357 120.344C213.994 121.265 214.427 122.194 213.314 123.252C212.956 123.568 212.881 124.556 213.096 125.081C214.722 128.635 216.397 132.166 218.291 136.101L219.046 134.02C219.511 134.189 219.905 134.332 220.285 134.51C221.606 135.558 222.66 136.671 221.645 138.577C221.137 139.529 221.97 140.359 221.957 141.288C222.246 141.272 222.572 141.268 222.861 141.251C223.775 141.299 224.413 141.774 224.345 142.52C224.234 143.495 224.016 144.431 223.804 145.572C224.344 145.647 224.728 145.705 225.304 145.792C225.281 146.189 225.294 146.6 225.236 146.985C224.992 148.439 225.382 149.596 226.686 150.353C227.516 150.858 227.968 151.509 227.893 152.497C227.861 152.81 227.861 153.256 228.036 153.442C229.481 154.819 229.305 156.866 230.225 158.459C230.421 158.814 230.573 159.397 230.873 159.465C231.709 159.728 231.79 160.285 231.784 160.973C231.78 161.987 232.216 162.795 232.844 163.631C233.553 164.579 233.943 165.736 234.444 166.811C234.672 167.299 234.714 167.964 235.079 168.299C236.656 169.643 236.708 171.286 236.233 173.266C235.491 173.078 234.714 172.877 233.972 172.689C235.254 175.184 236.535 177.679 237.853 180.187C238.38 181.191 239.069 181.969 240.459 181.823C240.631 182.576 240.771 183.195 240.911 183.814C241.151 185.16 241.554 186.281 243.207 186.637C243.855 186.75 244.375 187.548 244.915 188.069C245.406 188.612 245.823 189.251 246.405 189.99C247.01 189.438 247.433 188.942 247.925 188.592C248.354 188.301 248.907 187.893 249.327 187.964C251.198 188.278 252.206 187.06 253.023 185.813C254.204 184.009 255.376 182.12 256.212 180.149C256.752 178.884 256.818 177.364 256.795 175.976C256.782 173.332 256.08 170.803 255.293 168.284C254.493 165.802 253.644 163.342 252.905 160.8C251.9 157.431 250.407 154.291 248.586 151.275C248.114 150.454 247.766 149.516 247.551 148.544C246.862 145.533 245.636 142.774 244.387 139.966C242.581 135.9 241.069 131.697 239.446 127.576C239.97 127.807 240.471 127.988 240.994 128.219C240.858 127.033 240.282 126.052 239.635 125.046C237.091 121.118 234.817 117.005 233.031 112.662C232.94 112.467 232.898 112.248 232.892 112.043C232.921 111.85 233.048 111.612 233.158 111.531C233.305 111.462 233.679 111.435 233.76 111.546C234.7 112.861 235.774 114.144 236.47 115.574C237.394 117.493 238.432 119.209 240.205 120.462C240.631 120.738 240.992 121.194 241.22 121.683C242.309 123.702 243.314 125.731 244.342 127.81C244.879 128.898 245.429 129.95 246.457 130.688C246.811 130.939 247.234 131.336 247.273 131.675C247.439 133.562 248.763 134.489 250.061 135.488C251.265 136.412 250.923 137.912 251.613 139.136L253.33 139.76C253.731 141.001 253.984 142.311 254.531 143.484C254.872 144.217 255.627 144.816 256.258 145.532C256.717 145.495 257.202 145.387 257.732 145.376C258.038 145.65 258.477 145.89 258.552 146.242C258.695 146.741 258.607 147.318 258.532 147.859C258.389 149.147 258.73 150.327 259.745 151.101C261.138 152.174 261.736 153.65 262.309 155.198C262.835 156.648 263.522 157.993 264.709 159.074C265.321 159.62 265.695 160.487 266.108 161.246C266.43 161.809 266.628 162.49 267.074 162.936C268.001 163.841 268.431 164.89 268.457 166.158C268.46 166.484 268.486 166.859 268.684 167.093C270.008 168.914 270.698 171.031 271.605 173.107C272.471 173.177 273.323 173.283 274.175 173.39C274.908 173.493 275.627 173.632 276.267 173.986C276.635 174.201 277.126 174.298 277.533 174.405C277.676 174.457 277.904 174.499 278.037 174.466C278.991 173.959 279.915 174.538 280.829 174.585C281.645 175.125 282.563 175.052 283.445 174.966C284.193 174.913 284.866 174.954 285.556 175.285C286.21 175.604 286.942 175.707 287.632 176.039C288.048 176.23 288.601 176.268 289.112 176.088C289.818 175.817 289.841 175.866 290.267 176.589C290.29 176.638 290.361 176.663 290.384 176.712C290.7 176.624 291.015 176.535 291.367 176.46C291.634 176.394 291.93 176.583 292.167 176.263C292.05 176.139 291.92 176.051 291.803 175.928C291.686 175.804 291.604 175.693 291.487 175.57C291.634 175.501 291.731 175.455 291.816 175.445C292.222 175.552 292.593 175.646 293 175.753C292.961 175.414 292.922 175.075 292.86 174.687C292.681 174.622 292.489 174.593 292.31 174.528C291.162 174.234 290.066 173.795 288.995 173.285C287.938 172.739 286.881 172.193 285.693 172.006C285.43 171.951 285.319 171.586 285.423 171.299C285.514 171.048 285.82 170.874 285.732 170.558C285.095 170.53 285.059 170.517 284.284 171.089C283.474 171.201 282.758 170.941 282.033 170.597C280.855 170.048 279.639 169.606 278.435 169.129C277.983 168.924 277.482 168.742 277.143 168.335C277.003 168.163 276.792 167.964 276.587 167.971C275.562 168.005 275.52 166.894 274.843 166.526C274.798 165.982 274.583 165.457 274.72 164.857C274.853 164.378 274.635 163.974 274.072 163.851C274.037 163.838 273.916 163.835 273.929 163.799C273.552 163.053 272.917 162.458 272.966 161.542C272.989 161.144 273.324 160.778 273.734 160.764C274.265 160.754 274.759 160.73 275.032 161.317C275.192 161.659 275.501 161.811 275.849 161.857C276.353 161.918 276.874 161.822 277.31 162.184C277.687 162.483 278.1 162.795 278.527 163.072C279.076 162.784 279.652 162.424 280.192 162.945C280.579 163.329 280.908 163.205 281.227 162.996C281.484 162.845 281.774 162.829 282.047 162.968C282.45 163.196 282.815 163.531 283.234 163.602C284.204 163.832 285.196 164.111 286.234 164.041C286.439 164.034 286.768 163.91 286.898 163.997C287.607 164.498 288.42 164.266 289.188 164.382C289.308 164.385 289.416 164.424 289.51 164.499C289.982 164.873 290.532 165.032 291.072 165.106C290.734 163.806 290.347 162.528 289.911 161.274C289.407 159.873 289.013 158.39 288.606 156.944C288.483 157.061 288.395 157.192 288.307 157.322C287.087 157.001 285.89 156.729 284.706 156.421C284.562 156.37 284.322 156.363 284.24 156.253C283.512 155.582 282.516 155.424 281.647 155.028C281.338 154.875 281.052 154.771 280.694 154.641C280.769 154.547 280.844 154.452 280.906 154.393C281.068 154.168 281.075 153.927 280.945 153.839C280.493 153.634 280.04 153.43 279.575 153.261C278.837 152.952 278.173 152.549 277.685 151.885C277.545 151.712 277.356 151.563 277.204 151.426C276.839 151.091 276.446 150.948 275.97 151.141C275.642 151.265 275.316 151.269 274.994 151.152C274.458 150.957 273.895 150.834 273.368 150.724C273.514 151.102 273.625 151.467 273.758 151.881C274.295 153.416 274.796 154.937 275.332 156.472C274.636 156.828 274.47 156.281 274.298 155.975C272.844 153.62 271.425 151.278 270.007 148.937C269.948 148.875 269.903 148.777 269.844 148.715C269.47 148.295 269.132 147.888 269.051 147.331C269.005 147.233 268.924 147.123 268.878 147.025C266.455 143.1 264.067 139.189 261.582 135.323C255.931 126.452 250.268 117.616 244.605 108.781C236.225 95.7118 227.699 82.7114 218.681 70.0605C214.957 64.8112 211.086 59.6307 207.153 54.5089C204.43 50.963 201.473 47.6164 198.652 44.1163C198.034 43.3642 197.357 42.5503 197.032 41.6608C195.939 38.4222 193.812 36.0261 191.557 33.8683C189.885 33.7894 188.327 33.5082 186.876 33.7126C184.761 33.9603 182.509 33.9149 180.902 35.8897C180.391 36.5164 179.457 36.746 178.641 37.0994C177.824 37.4527 176.952 37.6236 176.506 38.5175C176.353 39.7207 177.394 40.4232 177.863 41.3646C178.422 42.5015 179.372 43.4551 179.274 44.8408C178.864 44.4078 178.37 43.9848 178.071 43.4702C172.7 34.944 167.095 26.617 160.631 18.8717C159.499 17.5271 158.526 16.0779 157.381 14.7692C155.755 13.0015 153.878 11.5896 151.59 10.638C149.899 9.94303 148.174 10.0076 146.463 10.0364C146.053 10.0501 145.542 10.2301 145.282 10.5011C143.779 12.1888 142.074 13.7628 141.338 16.0133C141.195 16.408 141.11 16.8645 141.123 17.2752C141.188 20.2221 141.458 23.1622 142.635 25.9443C144.109 29.3617 145.387 32.8707 146.971 36.2064C148.737 39.933 150.673 43.6399 152.732 47.2291C156.066 53.1081 159.644 58.8727 162.979 64.7517C164.634 67.6668 166.339 70.559 167.272 73.9022C167.91 76.1636 169.348 78.2282 170.629 80.2767C172.916 83.908 174.617 87.814 176.27 91.743C177.132 93.7204 178.225 95.6193 179.344 97.4464C179.62 97.9121 180.398 98.113 181.026 98.5032C181.022 99.0705 181.032 99.6018 180.957 100.143C180.804 101.346 181.282 102.372 182.167 103.059C184.48 104.832 184.844 107.4 185.124 109.978C185.169 110.523 185.215 111.067 185.211 111.634C185.182 113.613 185.94 114.984 187.794 115.454C188.243 117.119 188.695 118.664 189.112 120.195C187.261 118.265 186.008 116.024 184.756 113.783C182.02 108.934 179.249 104.071 176.513 99.2209C174.099 94.9346 171.699 90.6124 169.272 86.3619C167.72 83.6064 166.071 80.8967 164.471 78.1641C162.145 74.1938 159.855 70.2365 157.516 66.3021C157.008 65.4684 156.403 64.6804 155.847 63.8696C152.926 59.6427 150.323 55.2067 147.819 50.7249C146.485 48.3733 144.65 46.2865 143.134 43.9906C138.948 37.5587 134.306 31.4894 129.725 25.3613C127.377 22.2354 124.709 19.3186 122.201 16.2973C120.929 14.7801 119.755 13.2171 118.356 11.4915C116.228 10.882 113.951 10.4617 111.494 10.8698C108.615 11.3274 107.261 13.2724 106.197 15.6473C104.404 19.5848 105.054 23.5968 105.838 27.576C106.531 30.9131 107.783 34.0472 109.253 37.1386C109.708 38.1159 110.164 39.0932 110.798 40.582C110.121 40.2146 109.822 40.1467 109.695 39.9382C107.721 36.7857 105.782 33.6461 103.537 30.6798C99.9785 25.9779 96.6409 21.1127 93.1927 16.3292C92.682 15.6161 91.9858 15.0793 91.4132 14.4249C90.2095 13.0544 88.661 11.9647 87.8283 10.2415C87.4509 9.49552 86.6962 8.89686 86.0618 8.30128C84.419 6.69016 82.6883 5.20957 81.4033 3.28168C80.2908 1.65995 78.5502 0.987843 76.8487 0.208097C76.5754 0.0683435 76.2241 0.143867 75.9117 0.111752C74.3826 0.0847852 72.8632 0.142564 71.3731 0.00795996C70.4231 -0.052504 69.7528 0.232148 69.037 0.865689C67.1856 2.50831 65.962 4.54116 65.0118 6.71375C64.7547 7.31072 64.6277 7.99551 64.6472 8.61161C64.7055 10.9065 64.7411 13.1526 65.1248 15.4437C66.1392 21.5773 68.3836 27.2233 71.2103 32.7152C71.8966 34.0605 72.84 35.2554 73.9168 36.8642C72.7423 36.6411 72.5341 35.8753 72.0527 35.4164C71.5712 34.9575 71.1385 34.4757 70.7547 33.971C69.7657 32.6783 68.741 31.3727 67.7879 30.093C67.1242 29.2432 66.5094 28.3705 65.8588 27.4848C65.6734 27.2145 65.6116 26.8267 65.3514 26.651C63.2758 25.0047 61.8412 22.8195 60.1366 20.8206C59.4242 19.9937 58.6499 19.2255 57.9863 18.3757C56.402 16.3798 54.3362 14.8182 52.176 13.6285C50.3606 12.6044 48.0246 12.5689 45.7927 13.1396C42.7115 13.93 41.0032 16.0712 39.952 18.8568C38.8228 21.8577 38.1847 24.9557 38.3503 28.1827C38.3503 28.6293 38.4348 29.066 38.399 29.4997C38.119 31.3876 38.275 33.1901 39.1435 34.9263C39.4298 35.4768 39.5305 36.2036 38.6716 36.7852C37.9038 35.7758 37.1361 34.7664 36.3554 33.7929C35.503 32.7935 34.6377 31.8299 33.7854 30.8304C30.1419 26.5851 26.2511 22.5748 21.8755 19.1196C19.2925 17.0861 16.5044 15.5061 12.9646 15.4399C9.42474 15.3737 6.88684 17.0108 4.85313 19.6024C3.96806 20.7024 3.22288 21.9749 2.5753 23.2016C2.10344 24.1673 1.76172 25.2208 1.57615 26.2904C1.04873 29.7532 0.641681 33.2192 0.150041 36.6951C-0.204841 39.1243 0.103994 41.5101 0.71541 43.8432C0.910539 44.6449 1.43102 45.4428 2.01658 46.0612C2.85915 46.976 3.33731 48.0021 3.58119 49.2275C4.14054 51.7042 5.09033 53.9977 6.93162 55.8432C7.67009 56.5984 8.13523 57.6604 8.72402 58.6049C9.73894 60.2724 10.5814 62.0803 11.8176 63.5845C13.0277 65.1605 14.7975 66.0868 16.8765 66.2726C17.1531 66.2918 17.7094 66.2094 17.7387 66.017C18.0707 64.8788 19.4696 65.7112 20.0456 64.4585C20.3193 60.5787 20.7232 56.3401 19.7768 52.1395C18.9931 48.607 18.063 45.1431 17.2435 41.5976C16.4565 38.1856 15.7183 34.7508 15.0517 31.3419C14.8631 30.299 14.6647 29.1714 15.4001 28.2607C16.4282 28.1059 17.2253 28.4763 17.8597 29.0719C19.47 30.5494 21.0803 32.0269 22.6288 33.5632C23.4974 34.4062 24.2554 35.3308 25.0622 36.2326C25.4363 36.6525 25.8364 37.0007 26.1129 37.4665C27.4532 39.5769 28.7186 41.7819 30.1694 43.8106C30.807 44.7321 30.6865 45.6223 30.7645 46.7468C31.3209 46.6645 31.9065 46.3897 32.2514 46.5555C32.7621 46.822 33.2534 47.3656 33.5396 47.9161C34.87 50.3884 36.2232 52.9094 37.4073 55.4504C37.7943 56.281 37.6804 57.3766 37.7258 58.3675C37.7648 59.1531 37.8558 59.7952 38.7732 60.1686C39.8111 60.5452 39.9248 61.6827 40.2013 62.5951C40.6469 63.9342 40.9948 65.3192 41.3428 66.7041C41.538 67.5057 41.7494 68.1509 42.6961 68.332C42.9954 68.4 43.2589 68.9016 43.4541 69.2566C44.3747 70.8493 45.3571 72.3832 45.7636 74.2766C46.0432 75.515 46.7947 76.6809 47.3281 77.8895C47.6014 78.4758 48.0308 79.0782 48.0502 79.6943C48.1476 81.8816 49.3903 83.5912 50.3043 85.4251C51.15 87.1124 52.3537 88.483 54.3025 89.0276C55.3306 89.3194 56.2642 89.983 57.2142 90.4901C59.5176 91.7318 61.7657 91.8979 63.8872 90.069C65.6377 88.5928 67.6811 87.4258 68.5272 85.0936C68.6314 84.8066 68.8917 84.5356 69.1617 84.3494C70.5283 83.2617 70.8083 81.8204 70.6588 80.2232C70.5711 79.0139 70.6623 77.8696 70.9715 76.6825C71.4792 74.8365 70.7213 73.0187 70.1424 71.2657C68.2007 65.1205 66.3078 58.9523 63.9887 52.9544C62.9771 50.273 62.6553 47.4765 61.5591 44.805C60.5313 42.2802 59.8678 39.6439 59.0222 37.0633C59.7055 36.2962 60.3106 36.6375 60.6815 37.1781C61.5598 38.5525 62.129 40.2207 63.2806 41.2881C64.4778 42.4533 65.4082 43.6842 65.9936 45.1959C66.1758 45.5868 66.3189 46.0853 66.6377 46.3228C68.4075 47.6957 68.9929 49.6541 69.6499 51.6384C70.0955 52.9775 70.8697 54.1923 71.5105 55.4398C72.8344 58.1533 74.6203 60.7096 75.1145 63.8123C75.2283 64.5032 75.8757 65.0629 76.2563 65.6882C76.8127 65.6059 77.2356 65.5563 77.6586 65.5068C77.7432 65.4969 77.8863 65.5488 78.1368 65.6397C78.3547 66.4902 78.5824 67.4254 78.8231 68.3248C79.4542 68.5944 79.8023 69.0861 80.0007 69.7671C80.495 71.53 80.7096 73.3944 81.7863 75.0031C82.0531 75.3841 81.9391 76.033 81.9846 76.5773C82.1471 78.5852 82.4464 79.0998 84.4015 80.7431C85.6735 81.8136 86.1679 83.1299 85.4423 84.5719C85.6862 85.3506 86.21 85.1347 86.5809 85.2286C87.5277 85.4097 88.2727 85.9236 88.3181 86.9146C88.5162 90.2753 90.9398 92.8599 91.1054 96.087C92.6118 96.5117 93.1584 95.898 93.1325 94.6299C93.4871 94.8804 93.7864 94.9484 93.8059 95.1179C94.1961 97.6144 94.8661 100.009 95.8028 102.339C96.4794 104.046 96.9119 105.868 96.6319 107.756C96.248 107.697 95.8153 107.662 95.2752 107.588C95.0669 109.055 95.3498 110.173 96.5307 111.048C97.419 110.274 96.6741 109.314 97.032 108.55C97.7997 110.006 98.5186 111.485 99.2993 112.905C99.8035 113.86 100.259 114.837 101.303 115.419C101.612 115.572 101.827 116.096 101.866 116.435C101.967 117.609 102.63 118.458 103.33 119.321C103.574 119.653 103.935 120.109 104.283 120.154C106.027 120.259 107.146 121.64 108.587 122.244C110.087 122.016 111.597 121.874 113.051 121.549C114.069 121.309 115.176 120.939 115.999 120.345C117.831 118.979 119.591 117.588 119.52 114.882C119.497 113.493 119.715 113.451 121.348 111.404C121.258 108.529 121.059 105.615 119.846 102.82C119.573 102.233 119.58 101.546 119.404 100.913C119.173 100.099 119.066 99.1666 118.64 98.4436C117.508 96.6524 116.971 94.6711 116.314 92.6869C115.644 90.7385 114.938 88.7771 114.184 86.8386C113.598 85.3269 112.83 83.8709 112.209 82.3462C110.908 79.2349 109.705 76.0779 108.416 72.9308C107.704 71.2107 106.93 69.5493 106.218 67.8292C103.895 62.3984 101.986 56.8334 99.8457 51.347C99.0456 49.3108 98.0502 47.3661 97.2989 45.307C96.8077 43.8701 96.5118 42.3417 96.2875 40.8392C96.2062 40.2819 96.5121 39.662 96.6488 39.062C97.9567 39.2523 98.1485 40.1745 98.4283 40.9663C99.1894 43.1101 99.9505 45.254 100.734 47.4467C101.069 48.4209 101.652 49.16 102.628 49.5954C104.02 50.2224 104.772 51.3883 105.227 52.8121C105.581 53.9558 106.069 55.0667 106.375 56.2333C106.658 57.351 107.536 58.2787 108.372 58.5415C109.579 58.8982 109.872 59.6541 110.136 60.6023C110.445 61.6483 110.705 62.7171 111.063 63.7402C111.388 64.6297 111.677 65.5061 112.513 66.2155C113.138 66.7263 113.252 67.8639 113.658 68.8641C114.319 68.4947 114.93 68.1482 115.542 67.8017C116.082 69.2156 117.217 70.4396 116.414 72.0969C117.155 73.6247 117.897 75.1524 118.687 76.6573C118.71 76.7062 118.879 76.6863 119.156 76.7055C119.162 76.0176 119.169 75.3298 119.195 73.9182C120.399 76.182 121.427 77.8136 122.09 79.5566C122.516 80.7263 122.842 82.0624 122.096 83.3349C121.956 83.6089 121.911 83.9578 121.999 84.2739C122.181 85.1114 122.613 85.5932 123.547 85.3636C124.605 85.9096 124.725 85.9127 125.886 85.7251C126.355 87.1131 125.502 88.3467 124.864 90.1048C126.023 89.5911 126.582 89.3882 127.301 89.0806C127.959 90.1717 128.629 91.2269 129.162 92.4355C129.673 93.5952 130.379 94.6634 131.036 95.7544C130.584 95.5498 130.131 95.3451 129.643 95.1274C128.983 96.3901 129.344 97.2925 130.092 98.1324C131.175 98.1601 131.189 97.231 131.553 96.6729C132.425 97.8419 133.092 99.0177 132.242 100.577C132.028 100.946 132.187 101.735 132.454 102.116C133.917 104.108 134.265 106.387 134.171 108.991C135.173 108.015 135.928 107.274 136.621 106.592C137.838 107.033 138.043 107.919 137.851 108.784C137.385 110.848 137.788 112.862 137.938 114.906C139.607 115.105 140.15 116.845 141.51 117.339C141.689 118.743 141.799 120.002 141.945 121.273C142.593 120.939 143.218 120.557 143.865 120.223C145.287 121.104 144.629 122.693 145.384 123.738C145.976 124.562 145.722 125.932 145.895 127.131C146.597 126.98 147.069 126.908 147.687 126.767C148.061 127.633 148.471 128.513 148.845 129.379C149.577 131.269 149.749 133.361 151.09 135.025C151.311 135.308 151.438 135.964 151.262 136.225C150.526 137.582 151.037 138.742 151.668 139.904C151.818 140.162 151.808 140.524 151.893 140.96C152.293 140.862 152.657 140.75 153.022 140.639C155.143 142.383 153.675 144.977 154.436 147.121C154.94 147.182 155.458 147.207 156.011 147.246C157.937 149.974 159.752 152.785 159.449 156.411C159.986 157.052 160.558 157.706 161.046 158.371C162.36 160.106 163.613 161.9 164.963 163.649C165.347 164.153 165.864 164.625 166.384 164.977C166.703 165.214 167.383 165.461 167.604 165.297C169.693 163.782 172.69 163.894 174.262 161.46C174.802 160.641 175.602 159.997 176.035 159.139C176.328 158.555 176.669 158.395 177.216 158.228C177.483 158.162 177.698 157.794 177.838 157.52C178.244 156.733 176.897 155.758 178.352 154.986C179.221 154.489 178.967 153.179 178.873 152.211C178.778 151.243 178.613 150.249 178.385 149.314C177.64 146.12 177.114 142.884 175.822 139.857C174.96 137.88 174.027 135.876 173.018 133.968C171.255 130.567 169.626 127.133 169.079 123.281C169.031 122.857 168.875 122.395 168.631 122.063C166.366 118.927 165.713 115.035 163.755 111.726C162.86 107.382 160.443 103.663 158.892 99.5677C157.418 95.7037 155.385 92.0427 153.632 88.2802C153.222 87.4006 152.764 86.544 152.38 85.5927C150.597 81.1293 148.571 76.7804 146.496 72.4545C145.458 70.2915 144.384 68.1155 143.675 65.8281C142.723 62.762 140.976 60.0981 139.766 57.1823C138.162 53.2305 136.461 49.3244 134.857 45.3726C134.721 45.0794 134.646 44.7275 134.63 44.4374C134.623 44.232 134.776 43.9221 134.91 43.8893C135.176 43.8236 135.635 43.7871 135.775 43.9596C136.126 44.3307 136.377 44.8682 136.666 45.2981C138.065 47.4703 139.23 49.8417 141.142 51.7132C142.223 52.7547 143.065 54.1161 143.654 55.5072C144.197 56.8005 145.053 57.6794 146.09 58.5025C146.692 58.9645 147.333 59.3189 147.629 59.5075C148.374 61.8078 149.008 63.7433 149.642 65.6787C150.114 66.0528 150.957 65.1811 150.989 66.208C151.019 66.9088 151.324 67.6288 151.519 68.4304C152.32 68.2336 152.925 68.1283 153.761 67.9445C153.865 68.5506 154.197 69.1989 154.05 69.7142C153.666 70.9959 153.94 72.0289 154.633 73.1329C155.511 74.5073 156.181 76.0091 156.994 77.5628C157.703 77.6171 158.413 77.6714 159.193 77.7517C160.043 78.4252 160.124 79.4291 160.12 80.443C160.117 81.4568 160.176 82.4119 161.282 82.935C161.483 83.0488 161.617 83.4626 161.718 83.7428C162.953 88.3733 163.776 93.1381 165.572 97.5655C166.261 99.2368 166.485 101.186 168.151 102.399C168.447 102.588 168.515 103.181 168.577 103.569C168.662 104.006 168.541 104.449 168.639 104.85C169.023 106.248 169.332 107.741 171.313 107.526C171.472 108.314 171.651 108.826 171.661 109.357C171.654 110.938 171.976 112.395 173.125 113.583C173.219 113.658 173.264 113.756 173.31 113.853C173.801 114.844 174.159 115.867 174.761 116.775C175.489 117.892 174.451 118.855 174.347 120.036C174.972 120.1 175.369 120.122 175.74 120.216C176.638 120.42 177.243 120.761 177.272 121.909C177.272 123.249 177.428 123.265 179.143 123.115C179.422 123.907 179.725 124.748 180.004 125.54C180.092 125.856 180.115 126.351 180.33 126.429C182.529 127.511 182.132 129.722 182.6 131.557C182.642 131.775 182.733 131.97 182.857 132.299L184.324 132.832C184.685 134.181 184.949 135.576 185.443 136.892C185.915 138.159 186.689 139.374 187.245 140.632C187.606 141.534 187.652 142.525 188.537 143.211C188.914 143.511 189.161 144.169 189.148 144.651C189.063 146.448 189.906 147.809 190.882 149.138C192.183 150.909 193.035 152.802 193.565 155.024C194.147 157.55 195.579 159.856 196.512 162.306C197.4 164.658 198.288 167.01 198.812 169.474C199.153 171.1 198.779 172.913 198.84 174.641C198.86 175.257 198.944 176.14 199.335 176.404C201.228 177.659 202.087 179.757 203.489 181.362C204.354 182.326 205.158 183.348 205.87 184.175C207.933 184.517 209.976 183.797 211.795 182.467ZM257.53 144.369C257.589 144.431 257.719 144.519 257.742 144.568C257.761 144.737 257.745 144.894 257.764 145.063C257.634 144.975 257.491 144.924 257.374 144.8C257.329 144.702 257.478 144.513 257.53 144.369ZM217.013 128.573C217.104 128.768 217.231 128.976 217.214 129.133C217.224 129.218 216.944 129.319 216.834 129.401C216.778 129.218 216.639 129.046 216.632 128.84C216.622 128.756 216.866 128.641 217.013 128.573ZM209.014 115.235C208.669 114.623 208.36 114.024 208.015 113.411C209.3 113.553 209.17 114.358 209.014 115.235ZM180.081 46.6357L179.31 44.8538C180.026 45.56 180.049 45.6089 180.081 46.6357ZM94.7329 35.078C94.0204 34.6977 94.0986 34.0358 94.1637 33.4098C94.18 33.2533 94.4273 33.0182 94.5834 33.0343C94.7526 33.0145 95.0487 33.2031 95.0812 33.3367C95.1853 33.9429 95.4324 34.601 94.7329 35.078ZM94.8204 38.0738C94.8823 38.015 94.9213 37.9074 94.9831 37.8486C95.0417 37.9104 95.136 37.9853 95.1946 38.0471C95.0742 38.0441 94.9408 38.0769 94.8204 38.0738ZM140.999 113.499C141.725 114.737 141.725 114.737 141.399 116.527C141.295 115.028 140.358 114.485 140.999 113.499ZM123.248 84.849C123.245 84.9696 123.241 85.0902 123.238 85.2108C123.215 85.162 123.193 85.1131 123.17 85.0643C123.147 85.0154 123.222 84.9207 123.248 84.849ZM156.988 76.0176C156.978 75.9329 156.968 75.8481 156.994 75.7763C157.089 75.8512 157.134 75.9489 157.229 76.0237C157.108 76.0207 157.059 76.0436 156.988 76.0176Z" fill="#EBECEB"/>
</svg>
