<svg width="46" height="46" viewBox="0 0 46 46" fill="none" xmlns="http://www.w3.org/2000/svg">
<g id="Group 143725905">
<circle id="Ellipse 309" cx="23" cy="23" r="23" fill="#3F3F3F"/>
<path id="Arrow 2" d="M14.375 21.8021C13.7134 21.8021 13.1771 22.3385 13.1771 23.0001C13.1771 23.6617 13.7134 24.198 14.375 24.198V21.8021ZM32.4721 23.8471C32.9399 23.3793 32.9399 22.6208 32.4721 22.153L24.8486 14.5295C24.3808 14.0617 23.6223 14.0617 23.1545 14.5295C22.6866 14.9973 22.6866 15.7558 23.1545 16.2236L29.9309 23.0001L23.1545 29.7765C22.6866 30.2443 22.6866 31.0028 23.1545 31.4706C23.6223 31.9384 24.3808 31.9384 24.8486 31.4706L32.4721 23.8471ZM14.375 23.0001V24.198H31.625V23.0001V21.8021H14.375V23.0001Z" fill="white"/>
</g>
</svg>
