<svg width="240" height="468" viewBox="0 0 240 468" fill="none" xmlns="http://www.w3.org/2000/svg">
<path id="Vector" d="M216.598 114.849C214.406 115.897 212.596 115.707 210.88 114.087C210.309 113.515 209.451 113.134 208.879 112.657C207.926 111.895 206.974 111.037 206.021 110.275C206.878 112.943 206.402 115.23 204.972 119.709C204.591 121.138 204.305 122.472 205.354 123.711C206.878 125.426 206.783 127.428 206.783 129.333C206.878 133.24 207.164 137.243 206.974 141.15C206.878 144.199 208.117 147.534 205.163 150.202C204.687 150.583 204.782 151.727 204.877 152.489C205.544 156.301 204.782 160.398 207.069 164.02C207.641 164.972 207.355 166.307 207.45 167.45C207.545 169.642 207.641 171.738 207.736 173.93C207.831 175.359 208.022 176.693 208.117 178.027C208.403 181.744 208.689 185.46 208.879 189.272C208.975 191.464 209.546 194.036 208.593 195.656C206.878 198.42 207.641 200.993 207.545 203.661C207.545 205.186 207.641 206.806 207.259 208.33C206.688 210.236 208.403 211.094 209.165 212.332C209.356 212.618 209.165 213.095 209.07 213.476C208.593 216.239 208.879 218.812 210.023 221.576C211.262 224.53 212.215 228.056 208.689 230.724C208.403 230.914 208.689 231.867 208.975 232.344C209.546 233.106 210.309 233.773 210.88 234.44C208.212 239.014 208.308 239.014 209.546 243.588C209.832 244.732 210.023 245.875 209.928 247.019C209.356 252.927 209.261 258.835 210.023 264.743C210.309 266.935 210.118 269.031 211.452 271.032C212.215 272.08 212.215 273.319 211.262 274.367C210.499 275.13 210.118 276.083 210.88 277.035C211.833 278.37 211.357 279.608 211.262 281.038C211.071 283.229 211.071 285.421 211.357 287.518C212.5 297.904 213.549 308.386 212.5 318.869C212.405 319.821 212.596 320.87 212.691 321.823C213.072 325.348 214.311 328.779 212.977 332.4C212.786 332.876 212.977 333.639 213.167 334.115C214.502 336.783 215.073 339.261 213.358 342.024C212.977 342.691 213.739 343.835 213.739 344.788C213.835 348.123 216.026 351.077 215.073 354.603C213.93 358.796 212.215 363.084 215.454 367.086C215.55 367.181 215.454 367.467 215.454 367.658C216.026 370.993 216.598 374.233 217.074 377.568C217.17 378.331 217.074 379.093 217.074 379.76C215.836 380.332 214.883 380.713 213.739 381.189C214.597 385.096 215.454 388.717 216.312 392.624C215.264 392.91 214.216 393.482 213.358 393.291C212.5 393.101 211.738 392.053 211.166 391.29C210.88 390.814 210.976 390.147 210.88 389.575C209.737 383.762 207.831 378.045 208.784 372.041C208.879 371.66 208.593 371.279 208.498 370.898C207.164 366.896 207.164 362.703 207.45 358.605C207.545 357.462 207.355 356.128 206.783 355.27C205.449 353.269 205.83 351.649 206.783 349.743C207.926 347.361 208.689 344.693 207.164 342.31C205.925 340.309 205.354 338.117 204.305 336.116C203.162 336.402 202.209 336.688 201.256 336.974C200.78 333.829 203.734 332.972 205.068 331.638C205.068 330.589 205.258 329.922 205.068 329.351C203.924 326.301 203.448 323.347 204.21 320.107C204.877 317.439 204.687 314.676 202.971 312.198C202.876 311.626 202.971 310.673 202.59 310.483C200.113 309.149 200.875 307.148 201.256 305.242C201.447 304.289 202.114 303.431 202.4 302.478C202.971 300.573 203.352 298.667 201.161 297.142C200.589 296.761 200.494 295.808 200.303 295.046C199.636 292.473 200.208 289.9 200.78 287.422C201.161 285.898 201.542 284.373 200.589 282.848C198.493 279.322 199.064 275.701 199.541 271.985C200.017 267.792 201.161 263.313 198.969 259.121C199.636 256.262 198.111 253.498 198.588 250.544C199.16 247.495 199.064 244.255 198.778 241.111C198.493 237.489 198.397 234.059 199.922 230.628C200.684 228.818 200.78 227.389 198.397 226.245C197.73 225.864 197.54 224.053 197.635 223.005C197.826 220.051 197.73 217.097 197.158 214.143C196.777 212.523 196.206 210.522 197.73 208.997C199.541 207.187 199.35 205.662 197.635 203.756C196.873 202.994 196.682 201.564 196.587 200.421C196.396 196.323 195.634 192.131 197.444 188.128C197.635 187.557 197.826 186.985 197.73 186.413C197.54 185.079 197.063 183.745 196.968 182.316C196.873 181.077 197.063 179.933 197.158 178.694C195.348 178.694 194.014 178.694 193.823 180.314C193.633 181.363 193.537 182.506 193.347 183.554C192.68 179.933 193.252 176.312 192.584 172.882C191.822 168.975 192.299 165.449 193.823 161.923C193.919 161.733 194.49 161.637 194.871 161.447C195.348 162.209 195.824 162.971 196.777 164.687C197.063 162.781 197.635 161.733 197.254 160.97C195.824 157.921 196.301 154.776 196.015 151.727C195.92 150.965 196.015 150.202 196.015 149.535C195.348 150.107 195.348 150.583 195.348 151.155C195.348 151.918 195.348 152.775 195.157 153.442C194.967 153.919 194.395 154.3 193.919 154.681C193.347 154.205 192.299 153.728 192.299 153.252C192.299 151.06 192.394 148.868 192.966 146.772C193.442 144.771 194.49 142.865 195.348 140.959C190.869 138.196 193.061 134.86 194.49 131.906C193.728 130 192.966 128.285 192.299 126.665C191.822 126.57 191.346 126.475 190.965 126.284C192.394 123.806 192.584 121.043 192.68 118.28C192.775 115.897 192.584 113.61 194.109 111.419C195.062 110.084 194.776 108.369 193.061 107.226C192.489 106.845 192.203 106.082 191.822 105.51C192.299 105.129 192.489 105.034 192.68 104.939C194.586 103.986 193.061 102.175 194.109 100.841C194.776 99.9835 193.442 99.3165 192.584 98.5542C191.917 97.9824 191.536 96.9342 191.441 95.9813C190.869 90.7402 190.679 85.4992 190.774 80.3535C189.345 81.497 187.82 82.5452 186.295 83.6887C185.438 84.2604 184.771 85.118 183.913 85.6898C183.532 85.9757 182.865 86.1662 182.484 85.4039C182.198 84.7369 181.721 85.0228 181.34 85.3086C181.149 85.4039 181.054 85.5945 180.959 85.7851C180.387 87.8815 178.577 89.1203 177.147 90.645C176.29 91.5979 175.241 91.8837 174.003 91.1214C173.621 91.6932 172.954 92.1696 172.859 92.7414C172.478 94.5519 171.144 95.3142 169.524 95.886C169.238 95.9813 168.762 96.0766 168.571 96.3625C167.046 98.3636 165.045 99.6977 162.853 100.841C163.044 101.985 163.33 103.033 163.521 104.081C164.092 107.035 162.282 110.37 162.758 113.42C163.806 120.185 163.235 126.856 163.711 133.526C163.902 136.671 164.378 139.911 163.997 142.96C163.806 145.247 163.902 147.248 164.569 149.345C165.712 153.156 166.57 157.063 165.045 160.97C164.759 161.637 164.855 162.495 164.95 163.353C165.331 166.497 165.808 169.546 166.379 172.691C166.57 173.835 167.618 174.883 167.618 175.931C167.618 177.17 166.76 178.313 166.57 179.647C166.379 180.791 166.76 182.03 166.76 183.173C167.046 188.128 167.618 193.084 167.427 197.943C167.332 200.516 166.189 202.899 168.666 204.995C169.143 205.376 169.143 206.52 168.952 207.282C168.095 210.712 169.333 213.857 169.905 217.192C170.667 221.29 170.858 225.387 171.239 229.58C171.334 230.343 171.334 231.2 171.049 231.963C169.524 235.107 170.572 238.156 171.049 241.301C171.43 243.588 172.192 245.78 171.811 248.257C171.525 250.449 173.145 252.736 173.526 255.023C173.812 256.548 173.336 258.168 173.145 259.692C172.954 261.693 172.669 263.599 172.764 265.6C173.05 270.174 173.621 274.653 174.098 279.132C174.479 282.658 174.86 286.183 175.241 289.709C175.432 292.282 175.432 294.855 175.623 297.333C176.29 304.575 178.291 311.817 177.814 319.154C177.719 319.917 177.814 320.774 178.005 321.537C179.53 327.35 179.148 333.353 179.053 339.261C179.053 340.595 179.53 341.929 179.911 343.263C180.387 344.978 181.054 346.598 181.34 348.314C181.626 350.696 181.531 353.078 181.626 355.461C181.912 361.75 181.912 368.134 182.388 374.424C182.96 380.903 184.104 387.383 184.961 393.768C185.056 394.53 185.342 395.388 185.152 396.15C184.008 399.199 185.247 401.963 186.581 404.44C185.247 406.156 183.627 407.394 185.247 409.396C185.628 409.872 186.009 410.634 185.914 411.016C184.389 415.018 188.392 419.115 185.533 423.118C185.056 423.785 187.153 425.023 184.866 426.072C184.008 424.261 182.96 422.736 182.484 421.117C180.673 413.97 179.148 406.823 177.433 399.676C176.29 395.007 174.956 390.433 173.907 385.859C172.859 381.38 172.001 376.901 171.144 372.422C170.096 366.8 169.429 361.083 168.095 355.461C167.427 352.792 167.427 350.41 168.38 347.932C165.426 345.931 164.855 343.549 166.951 340.786C167.332 340.214 167.237 339.356 167.332 338.499C166.093 338.117 165.14 337.927 164.092 337.641C164.378 336.212 164.664 334.878 164.95 333.543C165.045 333.543 165.045 333.353 165.14 333.258C165.045 333.353 165.045 333.448 164.95 333.543C163.425 331.733 163.425 329.541 163.425 327.445C163.33 322.299 162.949 317.153 161.519 312.103C161.234 311.15 161.138 310.102 161.234 309.149C161.519 306.004 160.185 303.431 157.898 301.144C158.661 297.142 159.042 293.426 156.469 289.709C155.135 287.899 154.754 285.326 155.325 282.848C155.897 280.085 155.516 277.321 154.944 274.653C154.277 271.794 153.42 269.031 152.276 266.172C150.847 262.742 150.847 258.835 150.084 255.118C149.131 250.735 149.131 246.542 152.371 242.826C151.228 242.063 149.894 241.587 149.799 240.92C149.417 238.252 148.179 235.679 148.941 232.725C149.608 230.247 149.227 227.77 147.13 225.578C146.177 224.625 145.796 223.1 145.701 221.766C145.51 218.05 145.225 214.334 145.987 210.522C146.463 208.235 146.177 205.853 145.987 203.47C145.606 199.945 144.367 196.514 145.129 192.893C145.32 191.94 145.32 190.511 144.748 190.034C142.461 188.224 143.509 186.032 143.414 183.936C143.128 180.791 143.223 177.551 142.842 174.502C141.318 162.114 139.507 149.821 137.982 137.433C137.22 130.953 135.124 124.569 136.267 117.994C136.362 117.422 136.362 116.755 136.077 116.278C133.98 111.133 135.6 105.606 134.171 100.46C134.457 91.2167 132.932 81.9734 133.027 72.7301C133.122 66.0597 130.55 59.4846 132.074 52.8142C132.17 52.433 132.074 51.9565 131.884 51.6707C129.501 47.5731 131.693 42.5227 128.834 38.5204C129.597 33.6605 129.692 28.7054 129.025 23.8455C131.312 19.8432 129.883 15.7457 129.311 11.6482C128.93 8.50353 127.119 6.12124 124.451 4.12011C123.403 3.35778 122.259 2.78603 121.402 1.92841C119.115 -0.453886 116.542 -0.453886 113.778 0.975489C110.824 2.59545 107.965 4.40599 105.297 6.02595C103.868 10.9811 103.773 11.1717 98.6269 16.9845C98.1504 20.9867 98.0551 24.5125 97.2928 28.0383C96.4352 32.0406 98.9128 35.757 97.8646 39.6639C97.674 40.2357 97.674 40.9027 97.8646 41.3792C98.1504 42.0462 98.7222 42.7132 99.1986 43.3803C100.533 44.905 100.723 46.6202 100.628 48.4307C100.437 52.3377 100.437 56.3399 98.2457 58.9128C98.7222 62.4386 98.6269 65.2974 99.5798 67.8702C100.914 71.5866 100.628 74.8265 97.8646 77.7806C100.819 81.2111 100.914 84.8322 99.961 88.6438C99.1986 91.979 98.0551 95.4095 100.819 98.7447C102.153 100.365 101.962 102.556 101.2 104.462C100.723 105.701 100.056 106.94 99.4845 108.083C102.915 112.753 103.296 116.374 101.104 121.424C100.342 123.235 100.533 124.664 102.629 125.998C104.916 127.523 105.583 132.002 103.487 133.24C100.914 134.86 101.486 136.576 102.343 138.386C103.201 140.197 105.107 141.531 104.821 143.627C103.963 146.295 103.296 148.963 102.724 151.632C102.629 152.394 102.629 153.347 103.01 153.919C105.488 156.682 105.488 160.113 106.822 163.257C105.678 164.401 104.726 165.354 103.773 166.402C104.535 168.022 106.06 169.261 105.297 171.357C104.916 172.31 105.297 173.644 105.583 174.788C106.631 178.885 107.013 182.983 106.822 187.175C106.727 189.462 106.346 191.845 108.251 193.941C109.014 194.799 109.014 196.8 108.537 197.848C106.631 201.66 108.537 205.471 108.156 209.283C107.965 210.998 108.347 212.809 108.251 214.524C108.156 216.811 107.68 219.098 109.109 221.385C110.348 223.291 110.062 225.578 108.537 227.579C108.061 228.246 107.68 228.913 107.203 229.676C108.156 232.725 109.109 235.679 110.252 239.205C109.204 240.92 108.156 243.207 109.3 245.875C109.49 246.352 109.3 247.019 109.395 247.686C109.681 252.641 110.252 257.501 113.016 261.884C114.064 263.504 114.255 265.124 113.302 266.935C112.73 267.887 112.635 269.222 112.73 270.27C112.921 272.843 113.302 275.416 113.778 277.893C114.255 280.371 115.589 282.848 112.635 284.849C112.254 285.135 112.254 285.993 112.254 286.565C112.539 288.947 112.921 291.234 113.207 293.616C113.397 294.76 113.874 295.903 113.683 297.047C113.302 300.287 113.683 303.241 115.494 306.195C116.446 307.624 117.495 309.721 116.161 311.245C114.541 313.151 114.826 314.771 115.684 316.772C116.065 317.63 116.542 318.869 116.065 319.536C115.208 320.965 115.684 322.204 115.779 323.538C116.256 328.588 116.732 333.734 117.209 338.784C117.399 341.357 117.304 343.93 117.59 346.503C118.448 354.508 119.4 362.607 120.353 370.612C120.544 372.137 120.735 373.757 118.924 375.377C118.352 373.28 117.971 371.565 117.495 369.85C117.113 368.325 116.828 366.705 116.256 365.276C115.875 364.418 115.017 364.418 114.159 365.561C115.589 368.23 116.542 371.184 115.589 375.472C114.731 373.566 114.064 372.613 113.778 371.565C111.491 361.464 109.3 351.363 107.108 341.357C105.297 332.972 103.677 324.681 101.867 316.296C100.437 309.339 99.0081 302.288 97.5787 295.332C97.0069 292.377 96.7211 289.519 99.2939 286.946C100.533 285.707 100.247 283.992 99.4845 282.467C98.7222 280.752 96.8164 281.609 95.0058 280.847C94.6246 279.227 94.0529 277.321 93.767 275.416C93.1953 271.89 92.8141 268.364 92.2423 264.838C91.0988 257.787 90.1459 250.735 88.526 243.779C86.906 236.822 87.8589 229.485 85.2861 222.624C84.9049 214.143 82.4273 205.948 80.9979 197.562C79.6638 189.367 78.8062 181.077 77.8533 172.882C77.8533 172.691 78.1392 172.596 78.2345 172.405C78.5203 172.596 79.0921 172.786 79.0921 173.072C79.5686 175.359 80.045 177.742 80.4262 180.124C80.7121 182.125 80.7121 184.031 81.0932 186.032C81.7603 189.939 82.6179 193.846 83.4755 197.658C83.7614 198.992 83.952 200.421 84.5237 201.66C84.7143 202.232 85.7625 202.422 87.0966 203.28C87.0013 201.564 87.0013 200.612 86.8107 199.754C86.5248 198.229 85.9531 196.705 85.7625 195.085C84.9049 186.032 83.3802 176.979 80.7121 168.212C80.3309 167.069 79.9497 165.83 80.1403 164.687C80.9026 159.446 79.6638 154.395 78.9015 149.345C76.9957 135.432 74.9946 121.519 72.9934 107.512C72.0405 101.032 71.0876 94.5519 70.1347 88.0721C70.0394 87.1192 69.9441 86.0709 69.8488 85.118C69.0865 78.6382 69.2771 72.0631 67.0853 65.7738C66.7042 64.535 67.0853 63.1057 67.2759 61.7716C67.4665 60.8187 68.3241 59.961 68.3241 59.0081C68.0383 54.053 67.8477 49.0978 67.0853 44.2379C66.7042 41.9509 65.1795 39.8545 64.5125 37.5675C63.8454 35.2805 63.5596 32.8982 62.9878 30.6112C62.6066 29.2771 62.0349 27.943 61.5584 26.7042C60.9867 25.0843 59.8432 23.9408 58.3185 23.1785C56.9844 22.5114 55.7456 21.8444 54.1257 20.9867C52.5057 21.7491 50.5046 22.3208 49.0752 23.4643C45.3588 26.5137 41.9283 29.7536 38.4978 33.0888C36.592 34.8993 35.8297 36.9004 36.592 39.5686C37.259 41.8556 37.259 44.2379 37.3543 46.6202C37.4496 49.0025 36.8779 51.5754 37.6402 53.6718C39.0696 57.7693 36.8779 61.8669 38.1167 65.9644C37.5449 69.2996 38.5931 73.1113 38.9743 76.7324C39.6413 83.6887 40.0225 86.4521 39.8319 91.2167C41.166 91.4073 42.4048 91.5979 43.7389 91.7885C47.2647 92.2649 50.314 93.599 53.4586 95.219C54.1257 95.6001 54.5068 96.1719 54.6974 96.9342C54.7927 97.6965 54.888 98.4589 55.1739 99.2212C55.8409 101.032 55.9362 102.747 55.2692 104.558C54.7927 105.796 54.888 107.035 54.9833 108.274C55.2692 108.369 55.4598 108.464 55.7456 108.56C58.6044 109.036 61.2726 109.894 63.7501 111.419C64.1313 111.704 64.5125 111.895 64.7983 112.371C65.2748 113.134 66.1324 116.374 66.1324 117.231C66.1324 117.422 66.1324 117.613 66.1324 117.803C65.9418 119.328 65.7513 120.948 65.4654 122.472C65.2748 123.711 64.6078 124.378 63.369 124.569C63.1784 124.569 62.9878 124.569 62.7972 124.664C62.0349 124.855 61.8443 125.236 61.8443 125.998C61.8443 126.475 61.9396 126.951 61.9396 127.428C61.8443 128.095 61.749 128.762 61.6537 129.429C61.2726 131.144 61.1773 132.859 62.1302 134.479C62.7019 135.623 62.8925 136.861 63.0831 138.1C63.1784 138.672 63.2737 139.148 63.1784 139.72C63.1784 140.578 62.9878 141.531 62.8925 142.388C62.7972 143.055 62.7972 143.722 62.7972 144.389C62.8925 145.438 62.5113 146.295 62.1302 147.153C61.8443 147.725 61.3678 148.011 60.7008 148.106C59.6526 148.296 58.5091 148.487 57.4609 148.582C55.3645 148.773 53.2681 148.963 51.1716 149.249C49.647 149.44 48.2176 149.726 46.6929 150.107C46.7882 150.202 46.7882 150.298 46.7882 150.393C48.7893 150.583 50.7905 150.679 52.6963 150.774C54.0304 150.869 54.7927 151.536 55.1739 152.68C55.4598 153.442 55.5551 154.3 55.9362 155.062C56.508 156.206 56.7938 157.444 56.6985 158.683C56.6033 159.35 56.508 160.113 56.4127 160.78C56.3174 161.447 56.0315 162.209 56.2221 162.876C56.4127 163.924 55.7456 164.687 55.5551 165.64C54.6021 166.307 54.6021 167.45 54.1257 168.308C53.6492 169.165 53.7445 169.832 54.4116 170.404C54.6021 170.595 54.6974 170.785 54.7927 170.976C54.888 171.738 54.6021 172.405 54.1257 172.977C53.3633 173.93 53.5539 174.883 54.0304 175.836C54.4116 176.598 54.888 177.265 55.2692 177.932C54.7927 178.694 54.1257 179.076 53.3633 179.362C51.5528 180.029 49.7423 180.696 47.9317 181.267C47.9317 181.267 47.9317 181.267 47.8364 181.267C47.8364 181.649 47.9317 182.03 48.027 182.411C48.8846 182.411 49.8376 182.411 50.6952 182.411C51.8387 182.506 52.6963 183.078 53.0775 184.126C53.3633 184.888 53.6492 185.746 53.7445 186.508C53.9351 188.033 54.1257 189.462 53.7445 190.987C53.6492 191.178 53.7445 191.464 53.7445 191.749C53.7445 192.798 53.8398 193.941 53.5539 194.989C53.1728 196.8 52.601 197.943 50.4093 198.229C50.314 198.229 50.314 198.229 50.2187 198.229C50.5999 198.896 50.9811 199.468 51.3622 200.135C49.9328 200.993 48.8846 201.66 47.4553 202.517C49.1705 204.233 50.4093 205.948 50.5999 208.235C50.7905 210.427 51.2669 212.523 51.4575 214.619C52.1245 220.242 52.4104 225.959 54.6974 231.391C56.1268 235.012 57.3656 238.824 55.7456 243.016C55.0786 244.732 55.2692 247.114 55.9362 248.829C56.8891 251.211 57.0797 253.784 56.4127 255.785C55.0786 259.692 58.4138 263.409 56.508 267.22C58.4138 269.507 57.175 272.271 58.0326 274.558C59.0808 277.321 59.2714 279.894 58.9856 282.658C58.8903 283.42 58.9856 284.278 59.3667 284.945C60.4149 287.041 60.4149 289.138 60.4149 291.329C60.5102 296.666 60.7008 302.002 60.9867 307.338C61.082 309.435 61.6537 311.626 61.9396 313.723C62.7019 318.392 63.8454 323.061 64.1313 327.731C64.4172 334.782 64.7983 341.834 66.5136 348.79C66.7042 349.552 66.7042 350.315 66.7995 352.03C63.5596 346.694 63.6548 341.548 62.0349 336.879C60.5102 332.4 59.7479 327.635 58.5091 322.966C57.2703 318.106 55.9362 313.342 54.7927 308.577C53.6492 303.717 52.601 298.857 51.5528 293.997C50.5046 289.328 49.647 284.659 48.6941 279.99C47.6458 275.225 46.5023 270.365 45.4541 265.505C42.0236 263.981 41.7378 263.79 43.3577 261.122C44.9777 258.454 44.5012 256.167 42.8813 253.88C42.1189 252.831 41.8331 251.878 42.0236 250.64C42.5001 246.637 41.3566 239.205 39.8319 234.44C39.546 231.295 39.2602 228.151 38.7837 225.006C38.3073 221.862 37.3543 218.812 37.1638 215.668C36.9732 210.617 36.4014 205.567 35.7344 200.516C34.5909 200.802 33.3521 200.993 32.2086 201.279C31.0651 201.564 30.0169 201.85 28.8734 201.946C25.824 202.327 22.87 203.089 19.8207 203.47C19.8207 204.233 19.8207 204.995 19.8207 205.853C19.7254 207.377 19.2489 208.902 20.0113 210.427C20.2971 210.903 20.4877 211.665 20.2018 212.142C18.8678 214.524 19.4395 217.097 19.0583 219.765C16.676 217.764 16.7713 217.764 16.676 215.954C16.5808 212.237 16.5808 208.521 16.1996 204.804C16.1996 204.519 16.1043 204.233 16.1043 203.851C13.5314 204.137 10.9585 204.614 8.29038 204.995C7.43275 205.09 6.47983 205.186 5.62221 205.186C3.71638 205.281 1.81054 205.281 0 205.376C0.857625 212.047 2.09642 218.622 2.76346 225.387C3.4305 231.772 3.23992 238.442 5.33633 244.732C5.62221 245.494 5.81279 246.352 5.52692 247.114C4.19283 250.259 5.33633 253.308 5.81279 256.357C6.861 263.218 7.71863 270.079 8.57625 276.94C9.148 281.228 9.43388 285.612 10.0056 289.9C10.3868 293.235 11.1491 296.57 11.3397 299.905C11.5303 303.812 13.2455 307.624 12.102 311.531C12.0068 311.722 12.1973 311.912 12.1973 312.103C13.1503 318.011 13.8173 323.919 15.2467 329.636C16.3902 334.401 16.2949 338.975 15.9137 343.74C15.7231 345.931 16.4855 348.409 17.4384 350.505C17.8195 351.268 18.4866 351.744 18.296 352.888C17.629 357.748 17.2478 362.703 21.0595 366.896C21.6312 367.467 21.8218 368.897 21.4406 369.564C20.6783 370.898 20.7736 372.232 21.0595 373.566C21.6312 375.853 22.3935 378.235 22.5841 380.522C23.0606 389.67 24.8711 398.628 26.6817 407.49C27.5393 411.778 28.5875 415.971 29.731 420.259C30.1122 421.879 31.6368 423.022 32.9709 422.736C35.7344 422.165 38.5931 421.688 41.0707 420.545C43.7389 419.306 46.0259 417.4 48.5988 415.875C50.5046 414.732 51.0763 413.207 50.314 411.301C49.3611 408.633 48.2176 406.06 47.2647 403.488C45.3588 398.056 44.2153 392.338 42.4048 386.907C37.8308 373.375 35.5438 359.558 32.8756 345.741C31.1604 337.165 30.1122 328.493 29.1593 319.917C27.5393 306.195 25.2523 292.473 23.0606 278.846C22.3935 274.939 22.0124 271.032 22.1077 267.03C22.1077 266.268 22.1077 265.41 22.0124 264.648C20.2971 253.498 20.3924 242.159 18.4866 231.01C18.2007 229.294 18.296 227.484 18.2007 225.578C19.8207 225.197 21.3453 224.911 22.5841 224.625C23.4418 227.674 24.1088 230.533 24.8711 233.392C21.6312 240.158 21.6312 240.158 26.4911 247.4C25.157 253.117 25.3476 253.022 29.064 258.168C30.8745 260.645 31.9227 263.409 31.6368 266.553C31.4463 268.078 31.0651 269.698 31.2557 271.223C31.5416 273.129 32.2086 275.034 30.0169 276.464C29.6357 276.75 29.731 278.465 30.1122 278.655C32.9709 279.894 31.6368 282.562 32.6851 284.373C35.1626 288.661 35.1626 293.521 36.3061 298.19C36.7826 300.096 37.4496 301.907 38.1167 303.812C38.4978 304.956 38.9743 306.004 39.2602 306.957C35.4485 310.673 35.4485 310.673 38.0214 313.818C38.5931 312.96 39.0696 312.103 39.8319 310.673C40.3084 312.103 40.7848 312.77 40.7848 313.532C40.7848 317.916 41.4519 322.108 42.9766 326.301C43.6436 328.112 43.6436 330.208 43.5483 332.114C43.453 334.21 43.7389 336.021 45.3588 337.641C46.8835 339.166 47.4553 340.976 47.7411 343.073C47.9317 344.788 48.5035 346.503 48.9799 348.218C50.5999 354.317 52.3151 360.511 53.9351 366.61C54.1257 367.372 54.3163 368.23 54.221 368.992C53.6492 372.232 54.6021 375.376 55.5551 378.331C56.3174 380.808 56.6986 383.19 56.3174 385.954C59.8432 386.43 60.7008 388.622 60.7008 391.195C60.7008 392.338 60.5102 393.482 60.2243 394.625C59.5573 397.294 59.5573 399.676 61.8443 401.772C63.1784 403.106 63.5596 404.822 63.4643 406.727C63.2737 411.206 64.3219 415.304 68.4194 418.353C69.9441 419.497 69.4676 420.831 68.7053 422.069C68.61 422.069 68.5147 422.165 68.5147 422.26C70.5158 424.738 70.7064 427.882 71.5641 430.932C73.7558 438.555 75.9475 446.178 78.2345 453.802C78.6156 455.04 79.378 456.279 80.045 457.613C86.8107 456.374 93.767 456.851 99.5798 452.753C99.7704 451.705 99.4845 450.466 100.056 449.799C102.343 447.036 101.676 444.082 101.009 441.223C98.4363 429.026 95.5776 416.828 93.0047 404.631C91.9565 399.771 91.48 394.911 91.0036 389.956C90.7177 387.383 90.1459 385.001 89.193 382.523C88.2401 380.046 88.7166 377.092 88.4307 374.328C88.3354 373.566 87.9542 372.804 87.5731 372.137C86.6201 370.707 86.1437 369.373 86.8107 367.658C87.1919 366.8 87.0013 365.752 86.8107 364.799C85.5719 357.843 83.8567 350.982 83.4755 343.835C83.1896 337.546 82.332 331.161 80.9979 324.967C79.8544 319.726 79.5686 314.39 79.4733 309.149C79.378 306.385 78.9968 303.717 78.4251 300.954C77.4721 296.57 76.5192 291.901 76.8051 287.518C76.9957 284.087 76.5192 280.847 75.9475 277.607C75.1851 273.319 74.6134 269.031 74.2322 264.648C73.9463 261.503 74.1369 258.358 73.9463 255.214C73.4699 248.734 73.3746 242.254 72.0405 235.774C71.7546 234.345 72.0405 233.106 72.9934 231.867C74.1369 230.438 74.0416 228.913 72.7076 227.484C70.8017 225.387 70.1347 222.815 70.7064 220.337C71.1829 218.336 71.0876 216.525 70.7064 214.619C69.8488 210.331 69.3724 206.043 68.8006 201.755C68.8006 201.564 69.1818 201.279 69.4676 201.088C71.5641 203.756 70.7064 206.901 71.2782 209.76C72.8028 216.716 74.5181 223.672 75.9475 230.628C76.9004 235.488 77.5674 240.348 78.3298 245.208C78.4251 245.97 78.0439 246.733 77.8533 247.495C77.6627 247.781 77.5674 248.067 77.4721 248.448C77.5674 248.162 77.6627 247.876 77.758 247.59C79.2827 249.02 80.045 250.735 80.3309 252.736C81.1885 259.216 82.1414 265.696 83.1896 272.08C83.6661 275.034 84.1426 277.893 81.9508 280.466C81.7603 280.752 81.8556 281.228 81.9508 281.609C82.0461 281.895 82.4273 282.181 82.7132 282.372C83.3802 281.991 84.1426 281.609 84.9049 281.228C85.3813 282.372 85.4766 283.611 86.239 284.087C89.0977 286.088 88.526 288.566 87.6683 291.043C86.8107 293.426 85.3813 295.617 87.7636 298.19C88.526 299.048 88.4307 300.858 88.2401 302.192C88.1448 303.336 87.3825 304.289 86.8107 305.528C89.9553 306.957 91.2894 309.149 91.0036 312.198C90.9083 313.342 91.0036 314.485 91.2894 315.629C92.2423 319.44 93.2906 323.347 94.5294 327.064C95.1011 328.969 95.2917 330.589 93.5764 331.923C92.2423 332.972 92.1471 334.306 92.4329 335.735C92.8141 338.499 93.1953 341.167 93.8623 343.93C94.1482 344.978 94.8152 346.122 95.6729 346.884C96.4352 347.647 96.3399 348.123 95.7681 348.79C95.387 349.267 95.1011 349.838 95.1011 350.41C95.6729 354.698 96.2446 358.986 96.9116 363.274C97.0069 363.941 96.9116 364.894 98.2457 364.704C100.056 362.322 97.9598 359.463 99.1033 356.318C99.8657 358.605 99.961 360.416 100.914 361.654C102.82 364.132 102.724 366.419 101.39 368.897C100.723 370.135 100.247 371.374 101.295 372.804C101.772 373.375 101.867 374.233 101.867 374.995C102.153 378.331 102.343 381.666 102.724 384.906C102.915 386.716 103.963 388.146 105.678 389.194C105.393 390.623 106.25 391.671 106.822 392.91C107.298 393.863 105.964 395.388 105.869 396.627C105.774 397.579 106.155 398.532 106.441 399.485C107.298 401.868 108.347 404.25 109.014 406.727C109.967 410.349 110.443 414.065 111.301 417.686C112.063 421.498 112.921 425.405 113.778 429.216C114.636 432.933 117.113 436.458 115.97 440.556C115.779 441.128 116.446 442.081 116.923 442.652C117.781 443.796 118.829 444.749 119.782 445.797C118.352 446.559 117.59 447.512 118.352 449.132C119.305 451.133 120.735 452.277 123.403 452.086C125.785 451.896 128.263 452.277 130.55 451.896C136.267 451.133 141.603 449.609 144.557 444.463C145.987 441.985 146.94 439.317 146.844 436.458C146.559 427.406 146.273 418.353 145.606 409.3C145.225 404.345 144.081 399.581 143.414 394.625C142.842 390.147 142.461 385.573 141.985 381.094C141.508 376.806 141.127 372.422 140.651 368.134C140.46 366.8 139.888 365.371 139.888 364.037C139.793 357.366 139.698 350.601 137.22 344.216C137.601 338.88 137.315 333.639 135.695 328.398C136.934 324.586 135.791 320.965 134.838 317.344C134.457 315.819 134.552 314.199 134.457 312.579C134.266 308.863 133.98 305.147 133.79 301.43C133.504 297.523 133.122 293.521 132.932 289.614C132.646 284.278 131.026 279.037 131.884 273.7C131.979 273.319 131.788 272.938 131.693 272.557C129.501 262.932 128.834 255.023 129.025 245.113C129.025 243.588 129.216 242.063 128.263 240.539C127.691 239.586 127.691 238.252 127.786 237.108C128.072 232.63 128.453 228.151 128.739 223.672C128.834 221.671 129.311 219.289 128.263 217.859C126.452 215.477 129.692 214.238 128.93 212.332C128.072 210.427 128.453 208.425 128.739 206.52C128.834 205.567 128.834 204.519 128.453 203.661C127.881 202.136 127.214 200.802 127.5 199.087C127.691 197.467 127.405 195.847 127.214 193.369C128.739 196.038 129.501 197.943 130.74 199.468C132.074 201.183 130.264 203.28 131.312 204.519C133.694 207.473 132.837 210.522 132.36 213.571C131.503 218.336 132.646 225.864 135.124 230.247C135.981 231.677 136.267 233.106 136.362 234.726C136.553 237.204 135.695 239.776 137.506 242.159C137.982 242.826 137.601 244.065 137.601 245.017C137.601 245.589 137.411 246.542 137.696 246.733C140.46 248.543 139.507 250.926 138.935 253.213C138.173 256.643 138.649 259.883 140.365 263.028C140.936 264.076 141.413 265.219 141.413 266.363C141.318 269.889 143.89 273.129 142.366 276.845C142.175 277.321 142.556 277.988 142.842 278.56C145.225 283.325 146.082 288.185 144.939 293.426C144.367 296.189 144.462 298.857 146.844 301.24C148.655 303.05 149.417 305.337 148.274 307.815C147.607 309.244 148.179 310.388 148.75 311.722C150.37 315.819 151.895 319.917 150.466 324.395C150.084 325.634 150.561 327.159 150.847 328.493C151.323 330.78 152.371 333.067 152.467 335.449C152.657 340.023 156.66 343.74 155.992 348.409C155.992 348.695 156.374 349.171 156.66 349.362C157.898 350.41 158.089 351.554 158.184 353.078C158.184 354.412 158.851 355.651 159.423 356.985C159.804 358.033 160.376 359.082 160.948 360.225C159.899 360.511 159.137 360.797 158.279 361.083C157.898 363.846 159.709 365.752 161.519 367.467C161.329 369.659 160.566 371.755 160.948 373.566C161.901 377.187 161.996 380.999 163.902 384.429C165.331 387.097 166.284 389.861 167.332 392.72C167.618 393.577 167.713 394.625 167.523 395.578C166.76 399.485 166.76 403.297 168.095 407.109C168.666 408.633 168.762 410.158 169.143 411.778C170.191 416.161 171.334 420.545 172.383 425.023C173.717 426.072 174.288 427.501 174.384 429.026C174.479 430.36 174.67 431.694 175.051 433.028C177.243 440.937 179.625 448.846 181.721 456.756C182.007 457.899 181.245 459.328 181.054 460.281C182.102 461.139 182.96 461.901 183.913 462.664C183.246 463.902 182.769 465.237 183.913 466.38C184.58 467.142 185.628 468 186.486 468C191.727 467.905 196.968 468 201.447 464.855C202.4 464.188 203.067 462.95 205.068 463.235C206.592 465.522 209.165 466.189 212.119 465.237C214.406 464.57 216.789 464.665 219.171 464.76C223.84 464.855 228.509 464.284 231.368 460.472C232.798 458.566 233.846 456.279 234.608 454.087C235.561 451.419 235.752 448.656 236.609 445.988C239.468 437.507 239.563 428.93 238.706 420.259C238.325 416.352 237.562 412.445 237.086 408.538C236.705 405.584 236.133 402.725 235.466 399.866C234.799 397.103 233.655 394.149 234.989 391.195C235.275 390.528 235.275 389.575 234.989 388.908C233.465 385.096 233.465 381.189 233.369 377.187C233.274 375.091 232.988 372.708 232.035 370.802C230.511 367.753 231.273 365.561 233.941 363.56C234.227 363.37 234.227 362.798 234.322 362.417C233.846 360.892 233.655 359.272 232.798 357.938C230.606 354.508 230.32 350.696 230.606 346.98C231.178 337.736 227.747 328.588 229.653 319.345C228.986 314.866 228.605 310.292 227.557 305.909C226.794 302.764 226.318 299.81 227.557 296.666C227.938 295.808 227.938 294.76 227.652 293.807C226.318 288.375 226.699 282.848 225.841 277.321C225.555 275.797 225.365 274.177 225.555 272.652C226.032 268.555 226.413 264.457 224.984 260.359C224.888 259.978 225.079 259.597 225.079 259.216C224.984 256.262 225.174 253.308 224.793 250.354C223.459 241.301 223.459 232.248 223.554 223.196C223.554 218.431 223.554 213.762 222.887 209.093C222.411 205.376 221.458 201.66 222.697 197.943C223.078 196.895 222.697 195.561 222.601 194.418C222.03 188.7 221.363 182.983 220.981 177.36C220.791 174.311 219.743 172.024 215.454 170.881C218.409 169.356 220.505 168.308 222.601 167.259C220.314 164.591 220.314 164.591 220.219 162.304C220.028 157.73 219.838 153.252 219.647 148.678C219.647 147.534 219.361 146.2 219.838 145.152C221.172 141.817 220.505 138.577 219.552 135.241C218.694 132.287 218.98 129.429 220.791 126.951C219.552 125.426 218.599 124.092 217.646 122.854C219.743 119.709 220.219 119.232 219.838 117.422C219.552 116.183 219.457 114.944 219.361 113.61C218.409 113.801 217.551 114.373 216.598 114.849ZM210.309 239.491L210.213 239.014C210.309 239.014 210.499 238.919 210.595 238.919C210.499 239.205 210.404 239.395 210.309 239.491ZM211.643 120.948L211.929 121.138L211.643 121.329V120.948ZM212.405 257.691C212.31 257.882 211.833 257.977 211.262 258.263C211.262 257.596 211.262 257.12 211.357 256.643C211.357 256.548 212.215 256.452 212.31 256.643C212.405 256.929 212.5 257.405 212.405 257.691ZM214.311 298.953L214.216 298.571L214.597 298.667L214.311 298.953ZM202.59 312.675C202.781 312.389 202.971 312.198 203.257 311.912C203.257 312.198 203.352 312.484 203.257 312.77C203.257 312.96 202.876 313.056 202.59 313.151C202.495 313.056 202.495 312.77 202.59 312.675ZM41.6425 74.4454L41.4519 74.0642H41.8331L41.6425 74.4454ZM51.934 205.567C51.8387 205.186 51.8387 204.9 51.8387 204.519C51.8387 204.519 52.1246 204.423 52.3151 204.423C52.3151 204.804 52.4104 205.09 52.4104 205.471C52.4104 205.471 52.1245 205.567 51.934 205.567ZM53.4586 211.761L53.2681 211.38L53.6492 211.284L53.4586 211.761ZM55.1739 170.881C55.0786 170.976 54.888 170.976 54.6974 170.976C54.7927 170.881 54.7927 170.69 54.888 170.595C54.9833 170.499 55.0786 170.499 55.1739 170.499C55.2692 170.499 55.3645 170.69 55.3645 170.69C55.3645 170.69 55.2692 170.785 55.1739 170.881ZM65.4654 160.78C65.3701 160.684 65.2748 160.494 65.1795 160.398C65.2748 160.303 65.3701 160.113 65.4654 160.017C65.4654 160.208 65.4654 160.494 65.4654 160.78ZM39.4508 235.584C39.2602 235.774 38.879 235.869 38.4978 235.965C38.5931 235.679 38.4978 235.298 38.6884 235.107C38.9743 234.917 39.3555 234.821 39.6413 234.631C39.6413 235.012 39.6413 235.393 39.4508 235.584ZM45.8353 276.178C45.6447 276.083 45.4541 276.083 45.3588 275.987C45.2636 275.797 45.3588 275.606 45.3588 275.416C45.6447 275.511 45.8353 275.606 46.1212 275.701C46.0259 275.797 45.9306 275.987 45.8353 276.178ZM74.4228 142.102V144.389C74.2322 143.627 74.1369 142.865 74.1369 142.102C74.4228 142.102 74.4228 142.102 74.4228 142.102ZM74.3275 205.757L74.2322 205.376C74.5181 205.376 74.3275 205.757 74.3275 205.757ZM77.1863 164.305C77.1863 160.589 74.6134 157.063 75.7569 152.299C78.8062 156.682 77.091 160.589 77.1863 164.305ZM86.6201 277.798C86.3343 277.321 86.1437 276.845 85.7625 276.083C86.4296 275.797 86.906 275.511 87.3825 275.225C87.5731 275.701 88.0495 276.273 87.9542 276.75C87.7636 277.226 87.0966 277.417 86.6201 277.798ZM95.1011 320.679C95.1011 320.012 95.0058 319.345 95.0058 318.583C95.1964 318.583 95.387 318.583 95.5776 318.583C95.6729 319.25 95.6729 319.917 95.7681 320.679C95.4823 320.584 95.2917 320.679 95.1011 320.679ZM105.488 389.289C105.011 387.574 104.535 385.763 104.059 383.953C105.869 383.667 106.155 384.715 106.155 385.477C106.06 386.716 105.678 387.955 105.488 389.289ZM118.829 386.049C118.829 385.763 118.924 385.477 118.924 385.001C119.019 385.287 119.115 385.477 119.019 385.668C119.019 385.859 118.924 385.954 118.829 386.049ZM121.02 449.132C121.116 449.037 121.211 449.228 121.402 449.323C121.211 449.323 121.116 449.228 121.02 449.132ZM125.594 209.569C125.594 209.664 125.118 209.664 125.118 209.569C125.023 209.378 125.023 209.188 125.023 208.997C125.213 208.997 125.404 208.997 125.594 208.997C125.594 209.188 125.69 209.378 125.594 209.569ZM126.833 186.508C126.357 181.553 126.357 181.553 127.786 178.313C129.12 183.459 129.12 183.65 126.833 186.508ZM134.266 220.146V219.67C134.361 219.575 134.552 219.479 134.647 219.384C134.742 219.575 134.838 219.67 134.933 219.86C134.742 219.86 134.552 219.956 134.266 220.146ZM145.987 260.455V259.978C146.082 259.883 146.273 259.788 146.368 259.692L146.654 260.074C146.463 260.264 146.177 260.359 145.987 260.455ZM149.227 274.748C149.036 274.748 148.75 274.748 148.75 274.653C148.655 274.463 148.75 274.272 148.75 274.081C148.941 274.081 149.227 274.081 149.227 274.177C149.227 274.367 149.227 274.558 149.227 274.748ZM150.466 281.133C150.37 281.133 150.18 281.133 150.084 281.133C150.084 280.466 150.18 279.894 150.18 279.227C150.37 279.227 150.466 279.227 150.656 279.227C150.561 279.894 150.466 280.561 150.466 281.133ZM156.278 319.917C155.897 319.536 155.611 319.059 155.23 318.678C155.707 318.392 155.897 318.106 156.183 317.916C156.469 318.392 156.755 318.773 156.945 319.25C157.041 319.345 156.564 319.631 156.278 319.917ZM158.47 325.825C158.184 325.825 157.994 325.825 157.708 325.825C157.517 325.348 157.231 324.777 157.231 324.3C157.231 324.014 157.612 323.728 157.803 323.443C158.089 323.728 158.47 323.919 158.565 324.205C158.565 324.777 158.47 325.348 158.47 325.825ZM159.518 335.545C159.042 335.163 158.661 334.973 158.565 334.687C158.47 334.401 158.661 334.02 158.661 333.639C158.947 333.734 159.518 333.734 159.518 333.829C159.614 334.306 159.614 334.878 159.518 335.545ZM160.852 343.644C160.852 343.835 160.662 343.93 160.471 344.121C160.281 343.93 159.804 343.644 159.804 343.454C159.899 342.977 160.185 342.501 160.757 341.262C160.948 342.596 160.948 343.168 160.852 343.644ZM169.905 384.143C171.716 387.479 171.811 390.433 172.287 393.482C169.047 390.814 169.047 390.814 169.905 384.143ZM175.718 410.634C175.337 410.253 174.956 409.967 174.765 409.491C174.67 409.3 175.241 408.633 175.337 408.633C175.813 408.729 176.29 409.014 177.052 409.396C176.48 409.967 176.099 410.253 175.718 410.634ZM179.244 421.212C179.053 420.926 178.862 420.735 178.672 420.449C178.767 420.354 178.862 420.164 179.053 420.068C179.244 420.354 179.434 420.545 179.53 420.831C179.625 420.831 179.339 421.021 179.244 421.212ZM183.913 463.807C183.818 463.521 183.818 463.235 183.818 462.854C184.104 463.045 184.389 463.331 184.58 463.521C184.675 463.617 184.675 463.902 184.675 464.093C184.485 463.998 184.008 463.902 183.913 463.807ZM189.916 115.135C189.63 115.135 189.345 115.135 189.249 115.135C189.154 114.563 189.059 114.087 188.963 113.515C188.963 113.324 189.154 113.229 189.249 113.038C189.535 113.229 189.916 113.324 190.012 113.515C190.107 114.087 190.012 114.563 189.916 115.135ZM190.869 264.648L190.965 265.124C190.679 265.029 190.869 264.648 190.869 264.648ZM194.586 233.678C194.681 233.582 194.871 233.582 195.062 233.582C195.157 233.773 195.253 233.868 195.253 234.059C194.967 234.059 194.776 234.154 194.49 234.25C194.49 234.059 194.49 233.868 194.586 233.678ZM195.348 311.245C195.253 311.34 194.586 310.959 194.586 310.864C194.681 310.388 194.967 309.911 195.157 309.435C195.539 309.911 195.92 310.102 195.824 310.388C195.92 310.673 195.634 311.055 195.348 311.245ZM215.169 402.058C214.978 402.249 214.311 402.344 214.025 402.249C213.644 402.153 213.167 401.772 213.072 401.486C212.691 399.581 212.405 397.675 214.216 395.483C216.884 398.628 216.979 400.152 215.169 402.058Z" fill="#EBECEB"/>
</svg>
