<svg width="46" height="46" viewBox="0 0 46 46" fill="none" xmlns="http://www.w3.org/2000/svg">
<g id="Group 143725905">
<circle id="Ellipse 309" cx="23" cy="23" r="23" fill="#3F3F3F"/>
<path id="Arrow 2" d="M14.3749 21.8021C13.7133 21.8021 13.177 22.3385 13.177 23.0001C13.177 23.6617 13.7133 24.198 14.3749 24.198V21.8021ZM32.4719 23.8471C32.9398 23.3793 32.9398 22.6208 32.4719 22.153L24.8485 14.5295C24.3806 14.0617 23.6222 14.0617 23.1543 14.5295C22.6865 14.9973 22.6865 15.7558 23.1543 16.2236L29.9308 23.0001L23.1543 29.7765C22.6865 30.2443 22.6865 31.0028 23.1543 31.4706C23.6222 31.9384 24.3806 31.9384 24.8485 31.4706L32.4719 23.8471ZM14.3749 23.0001V24.198H31.6249V23.0001V21.8021H14.3749V23.0001Z" fill="white"/>
</g>
</svg>
