<svg width="35" height="36" viewBox="0 0 35 36" fill="none" xmlns="http://www.w3.org/2000/svg">
<g id="Group">
<path id="Vector" d="M35 17.9047C35 7.97126 27.2089 0 17.5 0C7.7911 0 0 7.97126 0 17.9047C0 26.857 6.35275 34.3377 14.7432 35.6867V23.0553H10.3082V17.9047H14.7432V13.9804C14.7432 9.44287 17.3802 6.99018 21.3356 6.99018C23.2534 6.99018 25.2911 7.35808 25.2911 7.35808V11.7729H23.1336C20.976 11.7729 20.2569 13.1219 20.2569 14.5935V17.9047H25.1713L24.4521 23.0553H20.3767V35.5641C28.6473 34.3377 35 26.857 35 17.9047Z" fill="#E9F7FB"/>
<path id="Vector_2" d="M24.3353 23.0579L25.0545 17.9072H20.1401V14.5961C20.1401 13.1244 20.8593 11.7755 23.0168 11.7755H25.1743V7.36062C25.1743 7.36062 23.1367 6.99271 21.2188 6.99271C17.2634 6.99271 14.6264 9.44541 14.6264 13.9829V17.9072H10.3113V23.0579H14.7462V35.5666C15.5853 35.6892 16.5442 35.8119 17.5031 35.8119C18.462 35.8119 19.301 35.6892 20.2599 35.5666V23.0579H24.3353Z" fill="#229EBF"/>
</g>
</svg>
