<svg width="38" height="57" viewBox="0 0 38 57" fill="none" xmlns="http://www.w3.org/2000/svg">
<g id="Group">
<path id="Vector" d="M3.75377 33.6293C0.869133 27.508 -0.92859 20.6219 0.501465 14.0388C1.93152 7.45565 7.00594 1.35906 13.6338 0.175435C15.4036 -0.164059 17.3471 -0.0538573 18.921 0.888403C21.6523 2.58936 22.5339 6.21136 22.4321 9.52436C22.3302 12.8374 21.511 16.083 22.5195 19.1391C24.2703 25.0096 31.086 27.8884 34.6754 32.7036C38.091 37.069 38.6969 43.5543 36.1205 48.513C33.5441 53.4717 28.144 56.9375 22.6375 56.9985C16.622 57.0839 10.9511 53.5902 7.60446 48.5089C4.31573 43.5775 2.95807 37.3828 3.09292 31.4726" fill="#26B0D5"/>
</g>
</svg>
