<svg width="18" height="19" viewBox="0 0 18 19" fill="none" xmlns="http://www.w3.org/2000/svg">
<g id="Group">
<path id="Vector" d="M9.00001 18.4162C13.9706 18.4162 18 14.2936 18 9.20812C18 4.12262 13.9706 0 9.00001 0C4.02944 0 0 4.12262 0 9.20812C0 14.2936 4.02944 18.4162 9.00001 18.4162Z" fill="#E9F7FB"/>
<path id="Vector_2" d="M13.9934 6.05401C13.6852 6.18015 13.3153 6.30629 13.0071 6.36936C13.192 6.36936 13.3769 6.05401 13.5002 5.92787C13.6235 5.73867 13.7468 5.54946 13.8084 5.29718V5.23411H13.7468C13.3769 5.42332 13.0071 5.61253 12.5756 5.6756C12.5139 5.6756 12.5139 5.6756 12.5139 5.6756C12.4523 5.61253 12.4523 5.61253 12.3906 5.54946C12.2057 5.42332 12.0208 5.29718 11.8358 5.17104C11.5893 5.0449 11.281 4.98183 10.9728 5.0449C10.6646 5.0449 10.418 5.17104 10.1715 5.29718C9.92487 5.42332 9.6783 5.61253 9.49337 5.86481C9.30844 6.11708 9.18515 6.36936 9.12351 6.68471C9.06186 7.00005 9.06186 7.25233 9.12351 7.56768C9.12351 7.63075 9.1235 7.63075 9.06186 7.63075C7.45912 7.37847 6.10295 6.81085 4.99336 5.54946C4.93171 5.48639 4.93172 5.48639 4.87007 5.54946C4.37692 6.30629 4.6235 7.44154 5.23994 8.00916C5.30158 8.07223 5.42487 8.1353 5.48651 8.26144C5.42487 8.26144 5.055 8.19837 4.68514 8.00916C4.62349 8.00916 4.6235 8.00916 4.6235 8.07223C4.6235 8.1353 4.6235 8.19837 4.6235 8.32451C4.68514 9.08134 5.23993 9.7751 5.91802 10.0274C5.97966 10.0904 6.10295 10.0904 6.16459 10.0904C5.97966 10.1535 5.85638 10.1535 5.42487 10.0904C5.36322 10.0904 5.36322 10.0905 5.36322 10.1535C5.67144 11.0996 6.41117 11.3518 6.96597 11.541C7.02761 11.541 7.08925 11.541 7.21254 11.541C7.02761 11.7933 6.41117 12.0456 6.10295 12.1087C5.54816 12.2979 4.99336 12.3609 4.43856 12.2979C4.37692 12.2979 4.31528 12.2979 4.31528 12.2979V12.3609C4.43856 12.424 4.56185 12.4871 4.68514 12.5502C5.055 12.7394 5.42487 12.9286 5.79473 12.9916C7.82898 13.5593 10.0482 13.1178 11.5893 11.6041C12.7605 10.4058 13.192 8.76599 13.192 7.06312C13.192 7.00005 13.2536 6.93698 13.3153 6.93698C13.6235 6.68471 13.8701 6.43243 14.1167 6.11708C13.9934 6.18015 13.9934 6.11708 13.9934 6.05401Z" fill="#229EBF"/>
</g>
</svg>
