<svg width="50" height="51" viewBox="0 0 50 51" fill="none" xmlns="http://www.w3.org/2000/svg">
<g id="Group">
<path id="Vector" d="M2.17604 14.7571C5.05675 20.7377 9.06748 26.1715 13.5777 31.105C18.765 36.6224 24.5902 41.5318 30.5843 46.0873C33.3774 48.2461 36.4626 50.0662 39.9466 50.6864C41.531 51.0081 43.2843 50.976 44.8374 50.5442C46.7057 50.089 48.0585 49.2574 49.2955 47.8492C49.6566 47.4567 49.7717 47.0337 49.6406 46.5801C50.2237 44.9032 50.0147 43.0654 49.5981 41.3893C48.8269 38.5446 47.4098 35.8696 45.9775 33.3176C42.7662 27.4834 38.8938 21.9419 34.3298 16.9392C30.089 12.3515 25.3793 8.01801 19.9016 4.83859C17.2781 3.32569 14.624 2.05889 11.8011 1.14597C9.15507 0.317499 6.03212 -0.695163 3.42626 0.667998C-1.97769 3.43292 0.134923 10.5676 2.17604 14.7571ZM8.45042 3.9785C10.9501 4.47641 13.3347 5.39737 15.6349 6.49526C20.4122 8.77549 24.6827 12.1173 28.6227 15.6056C32.9938 19.6471 36.9346 24.135 40.322 29.054C42.0696 31.5827 43.625 34.15 45.1112 36.7711C46.2355 38.785 47.5215 41.0064 47.8616 43.2978C47.9388 43.6823 47.9469 44.1206 47.9549 44.5589C47.5857 44.5131 47.2705 44.5364 46.8707 44.7366C44.8568 45.8609 42.6732 46.3394 40.4044 45.9951C37.9586 45.5664 35.7582 44.1685 33.873 42.7473C29.1794 39.2904 24.6547 35.4797 20.3375 31.5073C16.0895 27.481 12.1181 23.2392 8.85377 18.3355C7.26782 16.0143 5.76632 13.5162 4.66455 10.8179C3.93271 9.16509 3.31589 7.08926 3.84515 5.34321C4.52803 3.36634 6.74297 3.64146 8.45042 3.9785Z" fill="#F7F7F7"/>
</g>
</svg>
