<svg width="11" height="11" viewBox="0 0 11 11" fill="none" xmlns="http://www.w3.org/2000/svg">
<g id="Group">
<path id="Vector" d="M8.22182 1.87607C7.84236 1.87607 7.58939 2.13489 7.58939 2.52312C7.58939 2.91136 7.90561 3.17018 8.22182 3.17018C8.60129 3.17018 8.85426 2.91136 8.85426 2.52312C8.85426 2.1996 8.60129 1.87607 8.22182 1.87607Z" fill="#229EBF"/>
<path id="Vector_2" d="M5.43863 2.7176C3.98403 2.7176 2.7824 3.94701 2.7824 5.43525C2.7824 6.92348 3.98403 8.15289 5.43863 8.15289C6.89323 8.15289 8.09486 6.92348 8.09486 5.43525C8.09486 3.94701 6.89323 2.7176 5.43863 2.7176ZM5.43863 7.1823C4.48998 7.1823 3.73105 6.40583 3.73105 5.43525C3.73105 4.46466 4.48998 3.68819 5.43863 3.68819C6.38728 3.68819 7.1462 4.46466 7.1462 5.43525C7.1462 6.40583 6.38728 7.1823 5.43863 7.1823Z" fill="#229EBF"/>
<path id="Vector_3" d="M7.52598 11H3.22542C1.4546 11 0 9.51176 0 7.7V3.3C0 1.48824 1.4546 0 3.22542 0H7.52598C9.2968 0 10.7514 1.48824 10.7514 3.3V7.63529C10.8146 9.51176 9.36004 11 7.52598 11ZM3.22542 0.970588C1.96055 0.970588 1.0119 2.00588 1.0119 3.23529V7.63529C1.0119 8.92941 2.02379 9.9 3.22542 9.9H7.52598C8.79085 9.9 9.7395 8.86471 9.7395 7.63529V3.23529C9.7395 1.94118 8.7276 0.970588 7.52598 0.970588H3.22542Z" fill="#229EBF"/>
</g>
</svg>
