<svg width="35" height="36" viewBox="0 0 35 36" fill="none" xmlns="http://www.w3.org/2000/svg">
<g id="Group">
<path id="Vector" d="M17.5 35.8093C27.165 35.8093 35 27.7931 35 17.9047C35 8.01619 27.165 0 17.5 0C7.83502 0 0 8.01619 0 17.9047C0 27.7931 7.83502 35.8093 17.5 35.8093Z" fill="#E9F7FB"/>
<path id="Vector_2" d="M27.2093 11.7735C26.61 12.0187 25.8908 12.264 25.2915 12.3866C25.6511 12.3866 26.0107 11.7735 26.2504 11.5282C26.4901 11.1603 26.7299 10.7924 26.8497 10.3018V10.1792H26.7299C26.0107 10.5471 25.2915 10.915 24.4525 11.0377C24.3326 11.0377 24.3326 11.0377 24.3326 11.0377C24.2127 10.915 24.2127 10.915 24.0929 10.7924C23.7333 10.5471 23.3737 10.3018 23.0141 10.0566C22.5346 9.8113 21.9353 9.68867 21.336 9.8113C20.7367 9.8113 20.2572 10.0566 19.7778 10.3018C19.2983 10.5471 18.8189 10.915 18.4593 11.4056C18.0997 11.8961 17.86 12.3866 17.7401 12.9998C17.6203 13.613 17.6203 14.1035 17.7401 14.7167C17.7401 14.8393 17.7401 14.8393 17.6202 14.8393C14.5038 14.3488 11.8668 13.2451 9.70928 10.7924C9.58942 10.6697 9.58942 10.6697 9.46956 10.7924C8.51066 12.264 8.99011 14.4714 10.1887 15.5751C10.3086 15.6978 10.5483 15.8204 10.6682 16.0657C10.5483 16.0657 9.82915 15.943 9.10997 15.5751C8.9901 15.5751 8.99011 15.5751 8.99011 15.6978C8.99011 15.8204 8.99011 15.943 8.99011 16.1883C9.10997 17.6599 10.1887 19.0089 11.5072 19.4994C11.6271 19.6221 11.8668 19.6221 11.9867 19.6221C11.6271 19.7447 11.3874 19.7447 10.5483 19.6221C10.4285 19.6221 10.4285 19.6221 10.4285 19.7447C11.0278 21.5842 12.4661 22.0748 13.5449 22.4427C13.6648 22.4427 13.7846 22.4427 14.0244 22.4427C13.6648 22.9332 12.4661 23.4238 11.8668 23.5464C10.7881 23.9143 9.70928 24.0369 8.63051 23.9143C8.51065 23.9143 8.39079 23.9143 8.39079 23.9143V24.0369C8.63052 24.1596 8.87024 24.2822 9.10997 24.4048C9.82915 24.7727 10.5483 25.1406 11.2675 25.2633C15.223 26.367 19.5381 25.5085 22.5346 22.5653C24.812 20.2353 25.6511 17.0468 25.6511 13.7356C25.6511 13.613 25.7709 13.4903 25.8908 13.4903C26.4901 12.9998 26.9696 12.5093 27.449 11.8961C27.2093 12.0187 27.2093 11.8961 27.2093 11.7735Z" fill="#229EBF"/>
</g>
</svg>
