<svg width="52" height="52" viewBox="0 0 52 52" fill="none" xmlns="http://www.w3.org/2000/svg">
<g id="Group">
<path id="Vector" d="M39.7584 31.0952C40.2611 29.2282 41.4171 26.8567 40.7637 25.5447C39.9595 24.031 37.195 24.3337 35.2347 23.8291C33.2242 23.2741 30.6607 21.9622 29.2534 22.7191C27.5947 23.5769 28.0973 26.6548 27.2931 28.7741C27.1423 30.6411 25.4836 32.9622 26.4889 34.375C27.3433 35.586 30.0073 35.5356 31.8671 35.9393C33.8776 36.3934 36.3908 37.7053 37.8484 36.9989C39.6077 36.1916 39.2055 33.164 39.7584 31.0952Z" fill="#26B0D5"/>
<path id="Vector_2" d="M11.3594 30.7926C12.1636 32.3568 14.9281 32.054 16.8883 32.5082C23.2216 34.0724 23.2216 34.0219 24.7295 27.6137C25.1818 25.7467 26.3882 23.3751 25.6845 22.0632C24.8803 20.499 22.0655 21.0036 20.1555 20.4485C18.1449 19.9944 15.5815 18.5311 14.2244 19.288C12.6159 20.1458 12.9175 23.1733 12.4149 25.2925C11.862 27.1091 10.6557 29.4806 11.3594 30.7926Z" fill="#26B0D5"/>
<path id="Vector_3" d="M37.1949 40.6816C36.2902 39.1678 33.4252 39.4705 31.4146 38.966C29.5046 38.4614 27.0919 37.2504 25.6846 37.9568C24.1767 38.7137 24.629 41.5898 24.1264 43.5072C23.674 45.5256 22.2164 48.099 22.9703 49.4614C23.8248 51.0761 26.8406 50.6724 28.9014 51.3284C29.6554 51.5807 30.4596 51.732 31.2638 51.8834C33.8273 52.3375 35.0839 51.4797 35.687 49.0577C35.8881 48.2504 36.0891 47.4935 36.2399 46.6862C36.5415 44.6173 38.0997 42.1953 37.1949 40.6816Z" fill="#26B0D5"/>
<path id="Vector_4" d="M21.1608 42.6998C21.6634 40.8329 22.8195 38.4613 22.1158 37.1494C21.3116 35.6356 18.4968 36.0897 16.9387 35.5347C14.9281 35.0806 13.2694 34.7778 11.661 34.2732C10.5049 33.92 10.1531 34.3237 9.90177 35.4338C9.4494 37.8053 8.84623 40.1769 8.29333 42.5485C7.69017 45.0714 8.44413 46.3833 10.907 47.1402C11.661 47.3925 12.4652 47.5439 13.2694 47.6953C15.3302 48.1494 17.8434 49.4613 19.2508 48.7044C20.9598 47.7962 20.6079 44.7686 21.1608 42.6998Z" fill="#26B0D5"/>
<path id="Vector_5" d="M14.9783 15.4531C15.9333 16.7651 18.7481 16.7146 20.7587 17.2192C26.74 18.632 26.7903 18.632 28.1474 12.6779C28.5998 10.6596 30.1077 8.18708 29.1024 6.72378C28.1977 5.46231 25.4834 5.46231 23.5231 4.95772C23.5231 5.00818 23.5231 5.00818 23.5231 5.05864C23.4226 5.05864 23.3724 5.00818 23.2718 5.00818C21.3116 4.65497 18.9994 3.04029 17.592 4.04946C16.3857 4.90726 16.436 7.58158 16.0339 9.44855C15.5815 11.5174 14.0233 14.0403 14.9783 15.4531Z" fill="#26B0D5"/>
<path id="Vector_6" d="M30.1078 19.0862C30.9623 20.2972 33.6765 20.1458 35.5363 20.5495V20.6C36.6924 20.8522 37.949 21.0541 39.0547 21.4578C41.1658 22.2651 42.3721 21.811 42.5732 19.3385C42.6737 18.2284 43.0758 17.1183 43.3272 16.0082C43.679 14.0403 45.1869 11.7697 44.3324 10.2559C43.4277 8.69168 40.7134 9.0449 38.8034 8.54031C36.7929 8.03572 34.2797 6.77425 32.8221 7.53113C31.3142 8.33847 31.5655 11.3155 31.1131 13.3339C30.6105 15.3018 29.1026 17.6733 30.1078 19.0862Z" fill="#26B0D5"/>
<path id="Vector_7" d="M0 27.1595C0 27.9668 0.301582 28.6228 1.45764 28.976C7.99191 30.7925 7.99191 30.843 9.49982 24.3843C9.49982 24.2833 9.55008 24.2329 9.55008 24.132C9.65061 23.7283 9.75113 23.3246 9.8014 22.9714C10.9072 18.1778 10.9072 18.1778 6.28295 17.0677C1.50791 15.9576 1.40738 15.9072 0.502636 20.8017C0.100527 22.8705 0.0502636 25.0402 0 27.1595Z" fill="#26B0D5"/>
<path id="Vector_8" d="M42.6234 31.7007C40.9647 38.7145 40.9647 38.7145 46.946 39.5723C47.0466 39.5723 47.0968 39.5723 47.1973 39.6228C48.1021 39.8246 48.655 39.5723 49.1074 38.664C50.6153 35.7879 51.5703 32.8108 51.9221 29.5815C52.0729 28.1686 51.52 27.5127 50.0624 27.2604C48.1021 27.0081 45.6894 25.5448 44.3323 26.3016C42.7239 27.1594 43.2265 30.0861 42.6234 31.7007Z" fill="#26B0D5"/>
<path id="Vector_9" d="M6.3331 13.788C7.63996 14.0907 8.99707 14.3935 10.3542 14.6962C11.0076 14.8476 11.661 14.8981 11.8621 14.0403C12.7166 10.4072 13.5711 6.72376 14.5261 2.6366C10.3039 4.55403 7.4389 7.22834 5.02625 10.4072C3.1665 12.7788 3.31729 13.0816 6.3331 13.788Z" fill="#26B0D5"/>
<path id="Vector_10" d="M49.9117 24.0311C50.1631 24.0815 50.3641 24.132 50.6154 24.1824C51.5704 24.2834 51.9223 24.2834 51.7715 22.9714C51.2186 18.9347 49.5599 15.4026 47.3986 11.4164C46.7954 13.9393 46.343 15.9072 45.8907 17.8246C44.6843 22.9714 44.6843 22.9714 49.9117 24.0311Z" fill="#26B0D5"/>
<path id="Vector_11" d="M1.10565 31.9018C1.05539 31.9018 1.00513 31.9523 0.9046 32.0027C1.20618 35.2825 3.41778 39.7229 5.42832 41.1358C7.9415 33.1128 7.79071 32.8605 1.10565 31.9018Z" fill="#26B0D5"/>
<path id="Vector_12" d="M46.7953 42.5484C44.835 42.0943 43.2769 41.7411 41.7187 41.3374C40.9145 41.1356 40.4118 41.0851 40.1605 42.1448C39.6579 44.5668 39.0547 46.9384 38.4013 49.7136C41.8695 47.8466 44.3827 45.576 46.7953 42.5484Z" fill="#26B0D5"/>
<path id="Vector_13" d="M29.2534 2.98968C30.2586 3.24198 30.5099 2.88877 30.6607 1.98051C30.7613 1.27408 31.0628 0.315367 30.0576 0.264909C26.7904 0.0630735 23.473 -0.391056 19.7535 0.719038C23.272 1.57684 26.2878 2.2328 29.2534 2.98968Z" fill="#26B0D5"/>
<path id="Vector_14" d="M34.3802 4.20077C36.8431 4.70535 39.2558 5.31086 42.2716 6.01728C39.7081 3.94847 37.5468 2.58608 35.0336 1.8292C34.3299 1.62737 33.6765 1.37507 33.4755 2.48517C33.3247 3.44388 33.2241 3.99893 34.3802 4.20077Z" fill="#26B0D5"/>
</g>
</svg>
