<svg width="172" height="50" viewBox="0 0 172 50" fill="none" xmlns="http://www.w3.org/2000/svg">
<g id="Frame" clip-path="url(#clip0_12_4156)">
<path id="Vector" d="M37.9093 49.7276C45.9948 49.7274 52.2799 44.0037 53.2338 35.9764L53.2749 35.5926C54.161 26.2855 48.225 18.4301 40.4068 13.8469L40.4029 13.8439C38.6044 12.7648 36.6303 11.779 34.663 11.0635L33.7867 10.7454L34.5768 10.251C36.7986 8.86233 39.1986 7.8485 41.6746 7.02317L41.6785 7.02219C53.619 3.16454 67.2787 4.54731 78.9074 9.58328L79.5006 9.83979L79.0591 10.3107C77.7021 11.7581 76.4469 13.1939 75.284 14.8934C70.4367 22.0765 68.5117 32.1524 73.1175 39.8582L73.1165 39.8592C76.9293 46.1516 85.104 49.7898 92.0946 48.4637V48.4627C100.609 46.7947 104.798 38.534 103.641 30.2472C102.308 21.0963 94.829 14.3738 87.0439 9.84762L86.3694 9.45503L87.0439 9.06147C88.1263 8.43005 89.2416 7.78002 90.3627 7.31198V7.311C103.179 1.68683 117.254 4.74257 128.256 12.2609L128.643 12.5252L128.367 12.9041C125.329 17.0707 123.304 22.0731 122.855 27.3376L122.817 27.8477C122.55 32.1253 123.622 37.1238 125.993 41.1084C128.36 45.0867 131.99 48.0113 136.842 48.2738L136.841 48.2747C141.063 48.4924 144.4 46.3658 146.532 43.2113C148.67 40.0483 149.576 35.8743 148.916 32.0829C147.491 24.4215 141.772 17.5987 135.437 12.35L135.01 11.9956L135.441 11.647C141.73 6.56077 150.499 4.35032 158.892 5.73382H158.893C174.283 8.31428 185.014 20.4674 191.588 33.7071L191.996 34.5265L191.097 34.3552C189.149 33.9842 187.162 33.2909 185.227 32.6233C183.277 31.9506 181.38 31.3041 179.559 30.9933L179.552 30.9923C178.845 30.8577 178.19 31.2917 177.917 31.9204C177.784 32.2267 177.755 32.5548 177.846 32.8534C177.936 33.1445 178.151 33.4473 178.579 33.6914C182.095 35.4028 185.795 36.7557 189.52 38.1185L189.527 38.1214C190.74 38.5882 192.011 39.1601 193.33 39.5038C194.633 39.8433 195.909 39.9358 197.099 39.4881H197.1C198.791 38.7964 199.648 37.3086 200.266 35.5711L200.387 35.2196L200.391 35.2089C200.962 33.6298 201.383 32.0107 201.769 30.3726L202.527 27.085C202.852 25.7144 203.206 24.3461 203.656 23.0065L203.937 22.2057C204.294 21.2314 204.113 20.4718 203.684 19.9177C203.24 19.3433 202.493 18.946 201.666 18.8124C200.84 18.679 199.993 18.8184 199.362 19.2393C198.787 19.6225 198.35 20.2644 198.281 21.259L198.272 21.4626C198.271 23.6245 197.8 25.7391 197.3 27.7938L196.807 29.8302L196.806 29.8321V29.8351L196.805 29.838V29.84L196.804 29.8429V29.8459L196.803 29.8488V29.8507L196.802 29.8537V29.8566L196.801 29.8586L196.8 29.8615V29.8645L196.799 29.8674V29.8694L196.798 29.8723V29.8752L196.797 29.8782V29.8801L196.796 29.8831V29.886L196.795 29.888L196.794 29.8909V29.8938L196.793 29.8968V29.8987L196.792 29.9017V29.9046L196.791 29.9066V29.9095L196.79 29.9124V29.9154L196.789 29.9173V29.9203L196.787 29.9261V29.9281L196.786 29.931V29.934L196.785 29.9359V29.9389L196.784 29.9418V29.9447L196.783 29.9467V29.9496L196.782 29.9526L196.781 29.9545V29.9575L196.78 29.9604V29.9633L196.779 29.9653V29.9682L196.778 29.9712V29.9731L196.777 29.9761V29.979L196.776 29.9819L196.775 29.9839V29.9868L196.774 29.9898V29.9927L196.773 29.9947V29.9976L196.772 30.0005V30.0025L196.771 30.0054V30.0084L196.77 30.0113L196.769 30.0133V30.0162L196.768 30.0191V30.0211L196.767 30.024V30.027L196.766 30.0299V30.0319L196.765 30.0348V30.0377L196.764 30.0397L196.764 30.0426V30.0456L196.763 30.0485V30.0505L196.762 30.0534V30.0563L196.761 30.0593V30.0612L196.76 30.0642V30.0671L196.759 30.0691L196.758 30.072V30.0749L196.757 30.0779V30.0798L196.756 30.0828V30.0857L196.755 30.0877V30.0906L196.754 30.0935V30.0965L196.753 30.0984V30.1014L196.752 30.1043L196.751 30.1063V30.1092L196.75 30.1121V30.1151L196.749 30.117V30.12L196.748 30.1229V30.1259L196.747 30.1278V30.1307L196.746 30.1337L196.745 30.1356V30.1386L196.744 30.1415V30.1445L196.743 30.1464V30.1493L196.742 30.1523V30.1542L196.741 30.1572V30.1601L196.74 30.1631L196.739 30.165V30.1679L196.738 30.1709V30.1738L196.737 30.1758V30.1787L196.736 30.1817V30.1836L196.735 30.1866V30.1895L196.734 30.1924L196.733 30.1944V30.1973L196.732 30.2003V30.2022L196.731 30.2052V30.2081L196.73 30.211V30.213L196.729 30.2159V30.2189L196.728 30.2208L196.727 30.2238V30.2267L196.726 30.2296V30.2316L196.725 30.2345V30.2375L196.724 30.2404V30.2424L196.723 30.2453V30.2482L196.722 30.2502L196.721 30.2531V30.2561L196.72 30.259V30.261L196.719 30.2639V30.2668L196.718 30.2688V30.2717L196.718 30.2747V30.2776L196.717 30.2796V30.2825L196.716 30.2854L196.715 30.2874V30.2903L196.714 30.2933V30.2962L196.713 30.2982V30.3011L196.712 30.304V30.307L196.711 30.3089V30.3119L196.71 30.3148L196.709 30.3168V30.3197L196.708 30.3226V30.3256L196.707 30.3275V30.3305L196.706 30.3334V30.3354L196.705 30.3383V30.3412L196.704 30.3442L196.703 30.3461V30.3491L196.702 30.352V30.354L196.701 30.3569V30.3598L196.7 30.3628V30.3647L196.699 30.3677V30.3706L196.698 30.3735L196.697 30.3755V30.3784L196.696 30.3814V30.3833L196.695 30.3863V30.3892L196.694 30.3921V30.3941L196.693 30.397V30.4L196.692 30.4019L196.691 30.4049V30.4078L196.69 30.4107V30.4127L196.689 30.4156V30.4186L196.688 30.4215V30.4235L196.687 30.4264V30.4293L196.686 30.4313L196.685 30.4342V30.4372L196.684 30.4401V30.4421L196.683 30.445V30.4479L196.682 30.4499V30.4528L196.681 30.4558V30.4587L196.68 30.4607V30.4636L196.679 30.4665L196.678 30.4685V30.4714L196.677 30.4744V30.4773L196.676 30.4793V30.4822L196.675 30.4851V30.4881L196.674 30.49V30.493L196.673 30.4959L196.672 30.4979V30.5008L196.671 30.5037V30.5067L196.671 30.5086V30.5116L196.67 30.5145V30.5165L196.669 30.5194V30.5224L196.668 30.5253L196.667 30.5272V30.5302L196.666 30.5331V30.5351L196.665 30.538V30.541L196.664 30.5439V30.5458L196.663 30.5488V30.5517L196.662 30.5547L196.661 30.5566V30.5596L196.66 30.5625V30.5644L196.659 30.5674V30.5703L196.658 30.5733V30.5752L196.657 30.5782V30.5811L196.656 30.583L196.655 30.586V30.5889L196.654 30.5919V30.5938L196.653 30.5968V30.5997L196.652 30.6026V30.6046L196.651 30.6075V30.6105L196.65 30.6124L196.649 30.6154V30.6183L196.648 30.6212V30.6232L196.647 30.6261V30.6291L196.646 30.631V30.634L196.645 30.6369V30.6398L196.644 30.6418V30.6447L196.643 30.6477L196.642 30.6496V30.6526L196.641 30.6555V30.6584L196.64 30.6604V30.6633L196.639 30.6663V30.6692L196.638 30.6712V30.6741L196.637 30.677L196.636 30.679V30.6819L196.635 30.6849V30.6878L196.634 30.6898V30.6927L196.633 30.6956V30.6976L196.632 30.7005V30.7035L196.631 30.7064L196.63 30.7084V30.7113L196.629 30.7142V30.7162L196.628 30.7191V30.7221L196.627 30.725V30.727L196.626 30.7299V30.7328L196.625 30.7358L196.624 30.7377V30.7407L196.624 30.7436V30.7456L196.623 30.7485V30.7514L196.622 30.7544V30.7563L196.621 30.7593V30.7622L196.62 30.7642L196.619 30.7671V30.77L196.618 30.773V30.7749L196.617 30.7779V30.7808L196.616 30.7828V30.7857L196.615 30.7886V30.7916L196.614 30.7935L196.613 30.7965V30.7994L196.612 30.8023V30.8043L196.611 30.8072V30.8102L196.61 30.8121V30.8151L196.609 30.818V30.8209L196.608 30.8229V30.8258L196.607 30.8288L196.606 30.8307V30.8337L196.605 30.8366V30.8396L196.604 30.8415V30.8444L196.603 30.8474V30.8503L196.602 30.8523V30.8552L196.601 30.8582L196.6 30.8601V30.863L196.599 30.866V30.8689L196.598 30.8709V30.8738L196.597 30.8768V30.8787L196.596 30.8816V30.8846L196.595 30.8875L196.594 30.8895V30.8924L196.593 30.8954V30.8973L196.592 30.9002V30.9032L196.591 30.9061V30.9081L196.59 30.911V30.914L196.589 30.9169L196.588 30.9188V30.9218L196.587 30.9247V30.9267L196.586 30.9296V30.9326L196.585 30.9355V30.9375L196.584 30.9404V30.9433L196.583 30.9453L196.582 30.9482V30.9512L196.581 30.9541V30.9561L196.58 30.959V30.9619L196.579 30.9639V30.9668L196.578 30.9698V30.9727L196.578 30.9747V30.9776L196.576 30.9835V30.9854L196.575 30.9884V30.9913L196.574 30.9933V30.9962L196.573 30.9991V31.0021L196.572 31.004V31.007L196.571 31.0099L196.57 31.0119V31.0148L196.569 31.0177V31.0207L196.568 31.0226V31.0256L196.567 31.0285V31.0305L196.566 31.0334V31.0363L196.565 31.0393L196.564 31.0412V31.0442L196.563 31.0471V31.05L196.562 31.052V31.0549L196.561 31.0579V31.0598L196.56 31.0628V31.0657L196.559 31.0686L196.558 31.0706V31.0735L196.557 31.0765V31.0784L196.556 31.0814V31.0843L196.555 31.0872V31.0892L196.554 31.0921V31.0951L196.553 31.098L196.552 31.1V31.1029L196.551 31.1058V31.1078L196.55 31.1107V31.1137L196.549 31.1166V31.1186L196.548 31.1215V31.1244L196.547 31.1264L196.546 31.1293V31.1323L196.545 31.1352V31.1372L196.544 31.1401V31.143L196.543 31.145V31.1479L196.542 31.1509V31.1538L196.541 31.1558V31.1587L196.539 31.1646V31.1665L196.538 31.1695V31.1724L196.537 31.1744V31.1773L196.536 31.1802L196.278 32.4716L195.685 31.2958C190.582 21.1809 182.231 11.6177 172.253 5.97563C162.287 0.340055 150.717 -1.3771 139.104 4.13803L139.101 4.13901L138.602 4.37887C136.122 5.60293 133.875 7.21591 131.86 9.14665L131.539 9.45406L131.224 9.13979C131.081 8.99679 130.851 8.84172 130.566 8.65127L130.562 8.64833C116.679 -0.816964 96.3492 -2.67354 82.8146 7.27576L82.5982 7.43436L82.3554 7.32177C74.3207 3.6204 64.7039 1.34139 55.3318 1.39778C45.9592 1.45424 36.8635 3.8453 29.8286 9.44622L29.6543 9.58524L29.439 9.53238C14.5084 5.93465 -2.05791 10.8836 -12.9502 21.8659L-12.9512 21.8669L-13.0158 21.9374C-13.1504 22.0992 -13.1849 22.2504 -13.1774 22.375C-13.168 22.5285 -13.0913 22.6899 -12.9561 22.8215C-12.6836 23.0864 -12.2767 23.1519 -11.9438 22.8469C-1.93079 13.3881 12.7594 8.98017 26.267 11.5531L27.0081 11.695L26.5362 12.2844C26.3447 12.5236 26.1308 12.7612 25.9282 12.9863C25.7221 13.2154 25.5265 13.4322 25.3545 13.6472V13.6481L25.3467 13.6569L24.8562 14.259C19.8894 20.557 18.337 29.2739 20.3361 36.4924C21.3662 40.2119 23.3347 43.5172 26.2464 45.8918C29.1544 48.2634 33.028 49.7276 37.9093 49.7276ZM93.2508 43.9593C89.9366 45.2021 85.942 44.9101 82.3447 43.1349C75.0853 39.5524 73.1625 31.2864 75.1969 24.0648V24.0638C76.4965 19.2368 79.3716 15.069 83.0691 11.9261L83.3041 11.7273L83.5763 11.8712C85.1335 12.6957 86.6949 13.6132 88.1668 14.6252L88.1678 14.6271C91.4688 16.9195 94.8367 19.9122 97.1747 23.4539C99.5161 27.0008 100.838 31.1195 99.9923 35.6289C99.1903 39.9221 96.5809 42.7103 93.2508 43.9593ZM42.0104 45.51C38.2442 46.7929 33.7922 46.3645 29.9598 44.2148L29.9578 44.2138C22.7971 40.1623 21.1646 31.261 23.3828 23.9591L23.3838 23.9552C24.7753 19.5024 27.3737 15.7948 30.8889 12.8346L31.0837 12.6701L31.3255 12.7504C32.9814 13.3023 34.5432 13.9464 36.1021 14.68L36.107 14.682C40.1135 16.6162 44.0875 19.5915 46.7997 23.3237C49.5168 27.0627 50.9771 31.5792 49.8983 36.5511V36.5531L49.7955 36.9858C48.6697 41.4018 45.6713 44.2629 42.0104 45.51ZM143.503 40.3986C141.843 42.9816 139.553 44.0068 137.204 43.8281C134.814 43.6461 132.437 42.2239 130.653 40.1118L130.651 40.1088C128.299 37.2868 127.185 33.5462 127.091 29.9242C126.906 24.1753 128.762 19.253 131.824 15.3555L132.108 14.9953L132.466 15.2811C133.389 16.0194 134.31 16.8493 135.14 17.6787L135.139 17.6797C137.737 20.2331 141.028 23.8167 143.095 27.7547C145.163 31.6944 146.051 36.0807 143.664 40.1392L143.662 40.1441L143.503 40.3986Z" fill="white" stroke="#3F3F3F" stroke-width="0.906818"/>
</g>
<defs>
<clipPath id="clip0_12_4156">
<rect width="171.389" height="49.875" fill="white" transform="matrix(1.00251 0 0 -1.00251 0 50)"/>
</clipPath>
</defs>
</svg>
