<svg width="146" height="61" viewBox="0 0 146 61" fill="none" xmlns="http://www.w3.org/2000/svg">
<g id="Group 143725891">
<circle id="Ellipse 308" cx="30.2367" cy="30.2367" r="30.2367" fill="#3F3F3F"/>
<circle id="Ellipse 309" cx="115.763" cy="30.2367" r="30.2367" fill="#3F3F3F"/>
<path id="Arrow 2" d="M104.532 29.1569C103.936 29.1569 103.452 29.6404 103.452 30.2368C103.452 30.8332 103.936 31.3166 104.532 31.3166V29.1569ZM127.757 31.0003C128.179 30.5786 128.179 29.8949 127.757 29.4732L120.885 22.6008C120.463 22.1791 119.78 22.1791 119.358 22.6008C118.936 23.0226 118.936 23.7063 119.358 24.128L125.467 30.2368L119.358 36.3455C118.936 36.7672 118.936 37.4509 119.358 37.8727C119.78 38.2944 120.463 38.2944 120.885 37.8727L127.757 31.0003ZM104.532 30.2368V31.3166H126.994V30.2368V29.1569H104.532V30.2368Z" fill="white"/>
<path id="Arrow 3" d="M41.4673 31.3166C42.0637 31.3166 42.5472 30.8332 42.5472 30.2368C42.5472 29.6404 42.0637 29.1569 41.4673 29.1569L41.4673 31.3166ZM18.2422 29.4732C17.8205 29.8949 17.8205 30.5786 18.2422 31.0003L25.1145 37.8727C25.5363 38.2944 26.22 38.2944 26.6417 37.8727C27.0634 37.4509 27.0634 36.7672 26.6417 36.3455L20.533 30.2368L26.6417 24.128C27.0634 23.7063 27.0634 23.0226 26.6417 22.6008C26.22 22.1791 25.5363 22.1791 25.1145 22.6008L18.2422 29.4732ZM41.4673 30.2368L41.4673 29.1569L19.0058 29.1569L19.0058 30.2368L19.0058 31.3166L41.4673 31.3166L41.4673 30.2368Z" fill="white"/>
</g>
</svg>
