<svg width="21" height="21" viewBox="0 0 21 21" fill="none" xmlns="http://www.w3.org/2000/svg">
<g id="Group">
<path id="Vector" d="M15.6959 3.58013C14.9715 3.58013 14.4885 4.07425 14.4885 4.81543C14.4885 5.55661 15.0922 6.05073 15.6959 6.05073C16.4203 6.05073 16.9033 5.55661 16.9033 4.81543C16.9033 4.19778 16.4203 3.58013 15.6959 3.58013Z" fill="#229EBF"/>
<path id="Vector_2" d="M10.3828 5.18904C7.60585 5.18904 5.31182 7.53611 5.31182 10.3773C5.31182 13.2185 7.60585 15.5656 10.3828 15.5656C13.1598 15.5656 15.4538 13.2185 15.4538 10.3773C15.4538 7.53611 13.1598 5.18904 10.3828 5.18904ZM10.3828 13.7126C8.57176 13.7126 7.1229 12.2302 7.1229 10.3773C7.1229 8.52435 8.57176 7.04199 10.3828 7.04199C12.1939 7.04199 13.6428 8.52435 13.6428 10.3773C13.6428 12.2302 12.1939 13.7126 10.3828 13.7126Z" fill="#229EBF"/>
<path id="Vector_3" d="M14.3678 21.0001H6.15765C2.77698 21.0001 0 18.1589 0 14.7001V6.30003C0 2.84119 2.77698 0 6.15765 0H14.3678C17.7485 0 20.5255 2.84119 20.5255 6.30003V14.5765C20.6462 18.1589 17.8692 21.0001 14.3678 21.0001ZM6.15765 1.85295C3.74289 1.85295 1.93181 3.82943 1.93181 6.1765V14.5765C1.93181 17.0471 3.86362 18.9001 6.15765 18.9001H14.3678C16.7826 18.9001 18.5937 16.9236 18.5937 14.5765V6.1765C18.5937 3.7059 16.6619 1.85295 14.3678 1.85295H6.15765Z" fill="#229EBF"/>
</g>
</svg>
