<svg width="44" height="44" viewBox="0 0 44 44" fill="none" xmlns="http://www.w3.org/2000/svg">
<g id="Group 143725905">
<circle id="Ellipse 309" cx="22" cy="22" r="22" fill="url(#paint0_linear_12_4162)"/>
<path id="Arrow 2" d="M9.16673 20.8542C8.53391 20.8542 8.0209 21.3672 8.0209 22.0001C8.0209 22.6329 8.53391 23.1459 9.16673 23.1459L9.16673 20.8542ZM31.977 22.8103C32.4245 22.3628 32.4245 21.6373 31.977 21.1898L24.6849 13.8978C24.2375 13.4503 23.512 13.4503 23.0645 13.8978C22.617 14.3453 22.617 15.0708 23.0645 15.5182L29.5463 22.0001L23.0645 28.4819C22.617 28.9294 22.617 29.6549 23.0645 30.1023C23.512 30.5498 24.2375 30.5498 24.6849 30.1023L31.977 22.8103ZM9.16673 22.0001L9.16673 23.1459L31.1668 23.1459L31.1668 22.0001L31.1668 20.8542L9.16673 20.8542L9.16673 22.0001Z" fill="white"/>
</g>
<defs>
<linearGradient id="paint0_linear_12_4162" x1="17.4167" y1="22" x2="-7.79168" y2="24.2917" gradientUnits="userSpaceOnUse">
<stop stop-color="#3F3F3F"/>
<stop offset="1" stop-color="#3F3F3F" stop-opacity="0"/>
</linearGradient>
</defs>
</svg>
