<svg width="18" height="19" viewBox="0 0 18 19" fill="none" xmlns="http://www.w3.org/2000/svg">
<g id="Group">
<path id="Vector" d="M9.00001 18.4162C13.9706 18.4162 18 14.2936 18 9.20812C18 4.12262 13.9706 0 9.00001 0C4.02944 0 0 4.12262 0 9.20812C0 14.2936 4.02944 18.4162 9.00001 18.4162Z" fill="#E9F7FB"/>
<path id="Vector_2" d="M13.9937 6.05376C13.6855 6.1799 13.3157 6.30604 13.0074 6.36911C13.1924 6.36911 13.3773 6.05376 13.5006 5.92763C13.6239 5.73842 13.7472 5.54921 13.8088 5.29693V5.23386H13.7472C13.3773 5.42307 13.0074 5.61228 12.5759 5.67535C12.5143 5.67535 12.5143 5.67535 12.5143 5.67535C12.4527 5.61228 12.4526 5.61228 12.391 5.54921C12.2061 5.42307 12.0211 5.29693 11.8362 5.17079C11.5896 5.04465 11.2814 4.98159 10.9732 5.04465C10.665 5.04465 10.4184 5.17079 10.1718 5.29693C9.92525 5.42307 9.67867 5.61228 9.49374 5.86456C9.30881 6.11683 9.18552 6.36911 9.12388 6.68446C9.06224 6.9998 9.06224 7.25208 9.12388 7.56743C9.12388 7.6305 9.12388 7.6305 9.06223 7.6305C7.45949 7.37822 6.10332 6.8106 4.99373 5.54921C4.93209 5.48614 4.93209 5.48614 4.87045 5.54921C4.37729 6.30604 4.62387 7.44129 5.24031 8.00891C5.30195 8.07198 5.42524 8.13505 5.48689 8.26119C5.42524 8.26119 5.05538 8.19812 4.68551 8.00891C4.62387 8.00891 4.62387 8.00891 4.62387 8.07198C4.62387 8.13505 4.62387 8.19812 4.62387 8.32426C4.68551 9.08109 5.24031 9.77485 5.91839 10.0271C5.98004 10.0902 6.10332 10.0902 6.16497 10.0902C5.98004 10.1533 5.85675 10.1533 5.42524 10.0902C5.3636 10.0902 5.36359 10.0902 5.36359 10.1533C5.67181 11.0993 6.41155 11.3516 6.96634 11.5408C7.02799 11.5408 7.08963 11.5408 7.21291 11.5408C7.02798 11.7931 6.41154 12.0454 6.10332 12.1084C5.54853 12.2976 4.99373 12.3607 4.43894 12.2976C4.37729 12.2976 4.31565 12.2976 4.31565 12.2976V12.3607C4.43894 12.4238 4.56222 12.4868 4.68551 12.5499C5.05538 12.7391 5.42524 12.9283 5.79511 12.9914C7.82936 13.559 10.0485 13.1175 11.5896 11.6039C12.7609 10.4055 13.1924 8.76574 13.1924 7.06287C13.1924 6.9998 13.254 6.93673 13.3157 6.93673C13.6239 6.68446 13.8705 6.43218 14.117 6.11683C13.9938 6.1799 13.9937 6.11683 13.9937 6.05376Z" fill="#229EBF"/>
</g>
</svg>
