<svg width="102" height="103" viewBox="0 0 102 103" fill="none" xmlns="http://www.w3.org/2000/svg">
<path id="Vector" d="M75.6344 93.4377C76.8175 87.8865 80.0936 85.4294 85.9179 85.7024C87.2829 85.7934 88.3749 85.9754 89.376 84.6104C92.1971 81.0612 94.7452 77.4211 96.3833 73.1439C95.9283 72.8709 95.7463 72.6889 95.4733 72.6889C88.648 71.3238 85.3718 67.2286 86.6459 61.5864C87.8289 56.2172 92.5611 53.6691 98.9314 55.4891C101.753 56.3082 101.024 54.4881 101.206 53.305C102.39 43.6586 98.3854 34.9223 94.8362 26.5499C91.5601 18.7236 85.1898 12.8083 77.9095 8.07612C75.2704 6.34705 73.2683 5.61902 70.2652 7.98512C65.715 11.5343 59.4357 9.53218 57.0696 4.43597C55.0675 0.0677815 51.2454 -1.11527 45.9671 1.06882C46.8772 1.70585 47.8782 2.34288 48.7883 2.9799C53.4295 6.07404 54.7035 11.4433 51.7914 15.8114C49.0613 19.8156 43.419 20.9987 39.5059 18.2686C35.0467 15.2654 34.2276 9.44118 37.6858 4.89099C38.0498 4.43597 38.4138 3.98095 38.8688 3.61693C38.8688 2.9799 38.7778 2.34288 38.7778 1.70585C31.8615 3.34392 25.5823 6.43805 20.031 10.8062C20.9411 11.8983 22.3971 10.9882 23.3982 11.8073C27.9484 12.0803 31.1335 14.1734 32.4076 18.7236C33.3176 22.2727 32.2256 25.3669 29.4044 27.6419C26.4013 30.0991 23.1252 30.4631 19.667 28.734C16.2089 27.0049 14.7528 24.0018 14.7528 20.1796C14.7528 18.8146 15.8449 17.4495 14.7528 16.0845C11.7497 17.4495 10.5666 20.4526 9.11058 23.0008C8.10953 24.7298 10.4756 26.0039 11.1127 27.5509C12.9327 32.8292 10.2936 38.2894 4.65139 39.4725C1.83027 40.1095 0.738221 41.2925 0.556213 43.9316C0.46521 45.8427 -0.0808137 47.7538 0.0101902 49.5739C0.738221 59.3113 -0.171818 69.5947 8.47355 76.966C9.38359 77.7851 10.0206 79.1501 10.2936 80.4242C11.7497 87.7045 17.6649 90.7076 23.1252 94.9848C24.0352 89.6156 26.0373 85.7934 31.3155 84.8834C34.9557 84.2463 37.8678 85.6114 39.9609 88.7055C42.964 93.2557 41.417 97.2599 38.4138 101.264C42.691 102.72 46.8772 102.902 51.1544 102.993C53.3385 103.084 54.5215 102.265 55.7046 100.445C58.8897 95.3488 63.0759 94.3478 68.4451 96.9869C72.7223 99.08 74.6334 98.1699 75.6344 93.4377ZM4.65139 55.7621C2.5583 51.394 4.37838 46.0247 8.74656 43.8406C13.2968 41.5655 18.757 43.5676 20.8501 48.2088C22.9432 52.759 21.0321 57.8552 16.4819 59.9483C11.9317 62.0414 6.74448 60.2213 4.65139 55.7621ZM25.5823 45.8427C23.3982 41.4745 25.0363 36.1053 29.4044 33.8302C33.6816 31.5551 39.1419 33.2842 41.417 37.5614C43.8741 42.2026 42.145 47.4808 37.5038 49.7559C32.9536 52.031 27.8574 50.3019 25.5823 45.8427ZM50.6083 23.7288C55.0675 21.6357 60.3458 23.4558 62.4388 27.915C64.6229 32.3741 62.8939 37.5614 58.4347 39.7455C53.9755 42.0206 48.8793 40.3825 46.5132 35.9233C44.2381 31.3731 46.0581 25.9129 50.6083 23.7288ZM67.3531 25.8219C65.078 21.3627 67.171 15.7204 71.7212 13.6274C76.2714 11.5343 81.3677 13.4453 83.4607 17.9955C85.6448 22.5457 83.8248 27.5509 79.2746 29.826C74.8154 31.9191 69.5372 30.1901 67.3531 25.8219ZM14.6618 76.602C12.5687 72.1428 14.2978 66.9556 18.757 64.7715C23.2162 62.5874 28.4034 64.2255 30.6785 68.6847C33.0446 73.2349 31.1335 78.6951 26.4923 80.8792C22.0331 82.9723 16.7549 81.0612 14.6618 76.602ZM35.5927 66.5916C33.4086 62.1324 35.2287 56.9452 39.5969 54.7611C44.1471 52.486 49.2433 54.2151 51.5184 58.5833C53.8845 63.2245 52.0644 68.5937 47.4232 70.7778C42.964 72.9619 37.6858 71.0508 35.5927 66.5916ZM60.6188 44.7507C65.169 42.5666 70.2652 44.2957 72.4493 48.7548C74.7244 53.305 72.8133 58.7653 68.1721 60.8584C63.7129 62.8604 58.5257 60.9494 56.4326 56.4902C54.3395 51.94 56.1596 46.8438 60.6188 44.7507ZM77.1815 46.2977C75.2704 41.7475 77.2725 36.6513 81.7317 34.5582C86.2819 32.4652 91.2871 34.2852 93.4712 38.9264C95.5643 43.3856 93.7442 48.6638 89.285 50.7569C84.7348 52.941 79.0925 50.8479 77.1815 46.2977ZM45.5121 87.3405C43.51 82.8813 45.4211 77.6031 49.7893 75.51C54.3395 73.3259 59.7087 75.328 61.8018 80.0602C63.8039 84.5194 61.7108 89.7066 57.2516 91.7087C52.7014 93.8017 47.6052 91.7997 45.5121 87.3405ZM66.534 77.6031C64.2589 73.0529 66.17 67.5926 70.8112 65.4996C75.2704 63.4975 80.4576 65.3175 82.5507 69.7767C84.6438 74.2359 82.9147 79.4231 78.3645 81.6072C73.9053 83.7913 68.8091 82.0622 66.534 77.6031Z" fill="#26B0D5"/>
</svg>
