<svg width="18" height="19" viewBox="0 0 18 19" fill="none" xmlns="http://www.w3.org/2000/svg">
<g id="Group">
<path id="Vector" d="M18 9.20809C18 4.09949 13.9931 0 8.99999 0C4.00684 0 0 4.09949 0 9.20809C0 13.8121 3.26712 17.6594 7.58218 18.3531V11.857H5.30136V9.20809H7.58218V7.18988C7.58218 4.85632 8.93834 3.59494 10.9726 3.59494C11.9589 3.59494 13.0068 3.78415 13.0068 3.78415V6.05463H11.8972C10.7877 6.05463 10.4178 6.74839 10.4178 7.50522V9.20809H12.9452L12.5753 11.857H10.4794V18.29C14.7329 17.6594 18 13.8121 18 9.20809Z" fill="#E9F7FB"/>
<path id="Vector_2" d="M12.5145 11.8577L12.8844 9.20883H10.357V7.50596C10.357 6.74913 10.7268 6.05537 11.8364 6.05537H12.946V3.78488C12.946 3.78488 11.8981 3.59568 10.9118 3.59568C8.87753 3.59568 7.52137 4.85706 7.52137 7.19062V9.20883H5.3022V11.8577H7.58302V18.2908C8.01452 18.3538 8.50767 18.4169 9.00082 18.4169C9.49397 18.4169 9.92548 18.3538 10.4186 18.2908V11.8577H12.5145Z" fill="#229EBF"/>
</g>
</svg>
