<svg width="11" height="11" viewBox="0 0 11 11" fill="none" xmlns="http://www.w3.org/2000/svg">
<g id="Group">
<path id="Vector" d="M8.22163 1.87632C7.84217 1.87632 7.5892 2.13515 7.5892 2.52338C7.5892 2.91162 7.90541 3.17044 8.22163 3.17044C8.60109 3.17044 8.85407 2.91162 8.85407 2.52338C8.85407 2.19985 8.60109 1.87632 8.22163 1.87632Z" fill="#229EBF"/>
<path id="Vector_2" d="M5.43876 2.71734C3.98416 2.71734 2.78253 3.94676 2.78253 5.43499C2.78253 6.92323 3.98416 8.15264 5.43876 8.15264C6.89336 8.15264 8.09498 6.92323 8.09498 5.43499C8.09498 3.94676 6.89336 2.71734 5.43876 2.71734ZM5.43876 7.18205C4.4901 7.18205 3.73118 6.40558 3.73118 5.43499C3.73118 4.4644 4.4901 3.68793 5.43876 3.68793C6.38741 3.68793 7.14633 4.4644 7.14633 5.43499C7.14633 6.40558 6.38741 7.18205 5.43876 7.18205Z" fill="#229EBF"/>
<path id="Vector_3" d="M7.52598 11H3.22542C1.4546 11 0 9.51176 0 7.7V3.3C0 1.48824 1.4546 0 3.22542 0H7.52598C9.2968 0 10.7514 1.48824 10.7514 3.3V7.63529C10.8146 9.51176 9.36004 11 7.52598 11ZM3.22542 0.970588C1.96055 0.970588 1.0119 2.00588 1.0119 3.23529V7.63529C1.0119 8.92941 2.02379 9.9 3.22542 9.9H7.52598C8.79085 9.9 9.7395 8.86471 9.7395 7.63529V3.23529C9.7395 1.94118 8.7276 0.970588 7.52598 0.970588H3.22542Z" fill="#229EBF"/>
</g>
</svg>
