<svg width="49" height="67" viewBox="0 0 49 67" fill="none" xmlns="http://www.w3.org/2000/svg">
<g id="Group">
<path id="Vector" d="M15.0723 27.9202C14.2197 31.5193 12.535 34.7517 11.6246 38.201C8.96211 47.8341 12.9442 59.0287 21.7283 63.893C30.5125 68.7573 42.8616 65.8767 47.7546 57.1022C48.5164 55.9473 49.0122 54.5511 48.9998 53.1793C48.9858 49.571 44.8596 47.3802 41.2542 46.5369C37.7067 45.8432 33.6743 45.6811 31.0153 43.2674C27.0847 39.7964 27.9702 33.6035 28.1862 28.3576C28.471 22.3968 27.4732 16.2435 24.7314 10.9364C21.8394 5.68739 16.9031 1.40068 10.9405 0.263905C8.31745 -0.270862 5.47535 -0.0326553 3.24639 1.34518C1.01742 2.72302 -0.482677 5.5399 0.142918 8.05135C2.79546 18.0391 18.4591 13.0168 15.0723 27.9202Z" fill="white"/>
</g>
</svg>
