<svg width="18" height="19" viewBox="0 0 18 19" fill="none" xmlns="http://www.w3.org/2000/svg">
<g id="Group">
<path id="Vector" d="M18 9.20812C18 4.09951 13.9932 0 9.00002 0C4.00686 0 0 4.09951 0 9.20812C0 13.8122 3.26713 17.6594 7.58221 18.3532V11.857H5.30138V9.20812H7.58221V7.1899C7.58221 4.85634 8.93837 3.59495 10.9726 3.59495C11.9589 3.59495 13.0069 3.78416 13.0069 3.78416V6.05466H11.8973C10.7877 6.05466 10.4178 6.74842 10.4178 7.50525V9.20812H12.9452L12.5754 11.857H10.4795V18.2901C14.7329 17.6594 18 13.8122 18 9.20812Z" fill="#E9F7FB"/>
<path id="Vector_2" d="M12.5144 11.8575L12.8843 9.20861H10.3569V7.50574C10.3569 6.74891 10.7268 6.05514 11.8363 6.05514H12.9459V3.78465C12.9459 3.78465 11.898 3.59544 10.9117 3.59544C8.87744 3.59544 7.52127 4.85683 7.52127 7.19039V9.20861H5.30209V11.8575H7.58292V18.2906C8.01442 18.3537 8.50758 18.4167 9.00073 18.4167C9.49388 18.4167 9.92539 18.3537 10.4185 18.2906V11.8575H12.5144Z" fill="#229EBF"/>
</g>
</svg>
