<svg width="18" height="19" viewBox="0 0 18 19" fill="none" xmlns="http://www.w3.org/2000/svg">
<g id="Group">
<path id="Vector" d="M9.00001 18.4162C13.9706 18.4162 18 14.2936 18 9.20812C18 4.12262 13.9706 0 9.00001 0C4.02944 0 0 4.12262 0 9.20812C0 14.2936 4.02944 18.4162 9.00001 18.4162Z" fill="#E9F7FB"/>
<path id="Vector_2" d="M13.9934 6.05376C13.6852 6.1799 13.3153 6.30604 13.0071 6.36911C13.192 6.36911 13.3769 6.05376 13.5002 5.92763C13.6235 5.73842 13.7468 5.54921 13.8084 5.29693V5.23386H13.7468C13.3769 5.42307 13.0071 5.61228 12.5756 5.67535C12.5139 5.67535 12.5139 5.67535 12.5139 5.67535C12.4523 5.61228 12.4523 5.61228 12.3906 5.54921C12.2057 5.42307 12.0208 5.29693 11.8358 5.17079C11.5893 5.04465 11.281 4.98159 10.9728 5.04465C10.6646 5.04465 10.418 5.17079 10.1715 5.29693C9.92487 5.42307 9.6783 5.61228 9.49337 5.86456C9.30844 6.11683 9.18515 6.36911 9.12351 6.68446C9.06186 6.9998 9.06186 7.25208 9.12351 7.56743C9.12351 7.6305 9.1235 7.6305 9.06186 7.6305C7.45912 7.37822 6.10295 6.8106 4.99336 5.54921C4.93171 5.48614 4.93172 5.48614 4.87007 5.54921C4.37692 6.30604 4.6235 7.44129 5.23994 8.00891C5.30158 8.07198 5.42487 8.13505 5.48651 8.26119C5.42487 8.26119 5.055 8.19812 4.68514 8.00891C4.62349 8.00891 4.6235 8.00891 4.6235 8.07198C4.6235 8.13505 4.6235 8.19812 4.6235 8.32426C4.68514 9.08109 5.23993 9.77485 5.91802 10.0271C5.97966 10.0902 6.10295 10.0902 6.16459 10.0902C5.97966 10.1533 5.85638 10.1533 5.42487 10.0902C5.36322 10.0902 5.36322 10.0902 5.36322 10.1533C5.67144 11.0993 6.41117 11.3516 6.96597 11.5408C7.02761 11.5408 7.08925 11.5408 7.21254 11.5408C7.02761 11.7931 6.41117 12.0454 6.10295 12.1084C5.54816 12.2976 4.99336 12.3607 4.43856 12.2976C4.37692 12.2976 4.31528 12.2976 4.31528 12.2976V12.3607C4.43856 12.4238 4.56185 12.4868 4.68514 12.5499C5.055 12.7391 5.42487 12.9283 5.79473 12.9914C7.82898 13.559 10.0482 13.1175 11.5893 11.6039C12.7605 10.4055 13.192 8.76574 13.192 7.06287C13.192 6.9998 13.2536 6.93673 13.3153 6.93673C13.6235 6.68446 13.8701 6.43218 14.1167 6.11683C13.9934 6.1799 13.9934 6.11683 13.9934 6.05376Z" fill="#229EBF"/>
</g>
</svg>
