<svg width="11" height="11" viewBox="0 0 11 11" fill="none" xmlns="http://www.w3.org/2000/svg">
<g id="Group">
<path id="Vector" d="M8.22157 1.87607C7.84211 1.87607 7.58913 2.13489 7.58913 2.52312C7.58913 2.91136 7.90535 3.17018 8.22157 3.17018C8.60103 3.17018 8.854 2.91136 8.854 2.52312C8.854 2.1996 8.60103 1.87607 8.22157 1.87607Z" fill="#229EBF"/>
<path id="Vector_2" d="M5.43888 2.71709C3.98428 2.71709 2.78266 3.9465 2.78266 5.43474C2.78266 6.92297 3.98428 8.15238 5.43888 8.15238C6.89348 8.15238 8.09511 6.92297 8.09511 5.43474C8.09511 3.9465 6.89348 2.71709 5.43888 2.71709ZM5.43888 7.18179C4.49023 7.18179 3.73131 6.40532 3.73131 5.43474C3.73131 4.46415 4.49023 3.68768 5.43888 3.68768C6.38754 3.68768 7.14646 4.46415 7.14646 5.43474C7.14646 6.40532 6.38754 7.18179 5.43888 7.18179Z" fill="#229EBF"/>
<path id="Vector_3" d="M7.52598 11H3.22542C1.4546 11 0 9.51176 0 7.7V3.3C0 1.48824 1.4546 0 3.22542 0H7.52598C9.2968 0 10.7514 1.48824 10.7514 3.3V7.63529C10.8146 9.51176 9.36004 11 7.52598 11ZM3.22542 0.970588C1.96055 0.970588 1.0119 2.00588 1.0119 3.23529V7.63529C1.0119 8.92941 2.02379 9.9 3.22542 9.9H7.52598C8.79085 9.9 9.7395 8.86471 9.7395 7.63529V3.23529C9.7395 1.94118 8.7276 0.970588 7.52598 0.970588H3.22542Z" fill="#229EBF"/>
</g>
</svg>
