<svg width="54" height="61" viewBox="0 0 54 61" fill="none" xmlns="http://www.w3.org/2000/svg">
<g id="Group">
<path id="Vector" d="M2.1281 0.852492C-0.864481 5.15198 -0.451614 10.735 1.82148 15.1968C3.14752 17.8815 5.0029 20.2632 6.85829 22.6449C8.72871 24.9055 10.5991 27.1661 12.4695 29.4267C15.6423 33.0783 18.8301 36.6089 22.207 40.1015C22.0709 40.2076 22.0408 40.4497 22.1468 40.5858C23.6383 41.9388 25.1297 43.2919 26.6212 44.645C30.3462 48.3037 34.0863 51.8415 38.0155 55.3412C41.6266 58.4327 47.1532 63.4216 51.8636 59.6428C52.9523 58.7946 52.7696 57.2968 51.9444 56.5182C53.2666 54.2853 53.4684 51.1758 53.0278 48.7854C52.3894 45.0183 50.3971 41.7592 48.0646 38.7651C45.4141 35.3627 42.4914 32.1723 39.7047 28.876C34.5405 22.9487 29.5954 16.7413 24.0229 11.1321C18.5564 5.65892 12.0842 0.859888 4.20037 0.00354977C3.40597 -0.0336598 2.51345 0.224261 2.1281 0.852492ZM33.3559 27.0425C36.0666 29.9607 38.7773 32.8788 41.488 35.797C44.0926 38.579 46.8864 41.3231 48.8106 44.6353C50.3788 47.3501 51.3345 50.5419 50.6334 53.7124C50.339 54.5978 50.0296 55.6042 49.3871 56.3235C48.9408 56.4524 48.3205 56.4983 47.9573 56.4532C47.299 56.3099 46.5347 56.0306 45.7854 55.6302C44.1808 54.6934 42.6364 53.2723 41.1979 51.9872C37.0947 48.4044 33.1956 44.6625 29.3115 40.7996C25.4274 36.9367 21.7475 32.9147 18.0826 28.7717C14.5767 24.8328 10.9118 20.6898 7.82931 16.3118C5.57992 13.1437 3.3899 8.50774 5.09671 4.66317C10.3932 5.56691 15.0559 8.60459 19.0381 12.1724C24.1937 16.685 28.7597 21.9848 33.3559 27.0425Z" fill="#26B0D4"/>
</g>
</svg>
