<svg width="18" height="19" viewBox="0 0 18 19" fill="none" xmlns="http://www.w3.org/2000/svg">
<g id="Group">
<path id="Vector" d="M9.00001 18.4162C13.9706 18.4162 18 14.2936 18 9.20812C18 4.12262 13.9706 0 9.00001 0C4.02944 0 0 4.12262 0 9.20812C0 14.2936 4.02944 18.4162 9.00001 18.4162Z" fill="#E9F7FB"/>
<path id="Vector_2" d="M13.9937 6.05401C13.6855 6.18015 13.3156 6.30629 13.0074 6.36936C13.1923 6.36936 13.3772 6.05401 13.5005 5.92787C13.6238 5.73867 13.7471 5.54946 13.8088 5.29718V5.23411H13.7471C13.3772 5.42332 13.0074 5.61253 12.5759 5.6756C12.5142 5.6756 12.5142 5.6756 12.5142 5.6756C12.4526 5.61253 12.4526 5.61253 12.3909 5.54946C12.206 5.42332 12.0211 5.29718 11.8361 5.17104C11.5896 5.0449 11.2814 4.98183 10.9731 5.0449C10.6649 5.0449 10.4183 5.17104 10.1718 5.29718C9.92519 5.42332 9.67861 5.61253 9.49368 5.86481C9.30875 6.11708 9.18546 6.36936 9.12382 6.68471C9.06217 7.00005 9.06217 7.25233 9.12382 7.56768C9.12382 7.63075 9.12381 7.63075 9.06217 7.63075C7.45943 7.37847 6.10326 6.81085 4.99367 5.54946C4.93203 5.48639 4.93203 5.48639 4.87038 5.54946C4.37723 6.30629 4.62381 7.44154 5.24025 8.00916C5.30189 8.07223 5.42518 8.1353 5.48682 8.26144C5.42518 8.26144 5.05531 8.19837 4.68545 8.00916C4.62381 8.00916 4.62381 8.00916 4.62381 8.07223C4.62381 8.1353 4.62381 8.19837 4.62381 8.32451C4.68545 9.08134 5.24025 9.7751 5.91833 10.0274C5.97997 10.0904 6.10326 10.0904 6.16491 10.0904C5.97997 10.1535 5.85669 10.1535 5.42518 10.0904C5.36354 10.0904 5.36353 10.0905 5.36353 10.1535C5.67175 11.0996 6.41148 11.3518 6.96628 11.541C7.02792 11.541 7.08956 11.541 7.21285 11.541C7.02792 11.7933 6.41148 12.0456 6.10326 12.1087C5.54847 12.2979 4.99367 12.3609 4.43887 12.2979C4.37723 12.2979 4.31559 12.2979 4.31559 12.2979V12.3609C4.43888 12.424 4.56216 12.4871 4.68545 12.5502C5.05531 12.7394 5.42518 12.9286 5.79504 12.9916C7.82929 13.5593 10.0485 13.1178 11.5896 11.6041C12.7608 10.4058 13.1923 8.76599 13.1923 7.06312C13.1923 7.00005 13.254 6.93698 13.3156 6.93698C13.6238 6.68471 13.8704 6.43243 14.117 6.11708C13.9937 6.18015 13.9937 6.11708 13.9937 6.05401Z" fill="#229EBF"/>
</g>
</svg>
