<svg width="264" height="217" viewBox="0 0 264 217" fill="none" xmlns="http://www.w3.org/2000/svg">
<g id="Frame" clip-path="url(#clip0_12_4171)">
<path id="Vector" d="M231.41 19.9699C226.247 21.6309 221.157 23.2395 215.994 24.9005C214.473 25.4232 214.329 27.4165 215.413 28.3165C217.485 30.2957 219.578 32.1484 221.65 34.1275C209.971 48.0893 193.675 57.4266 176.398 63.3429C158.024 69.5934 135.679 70.0927 120.93 84.1186C117.819 87.1047 114.524 91.5566 112.051 96.5385C101.435 94.2792 89.499 95.9612 80.561 100.3C68.6435 106.086 60.5165 117.527 58.799 130.317C47.5476 135.63 38.2389 147.131 33.7644 157.761C25.4648 177.113 28.8431 199.751 42.2314 215.954C43.1457 217.086 44.9958 215.773 44.0817 214.642C34.374 202.058 29.9949 185.693 33.188 169.964C36.0706 155.679 45.2721 141.362 58.5432 134.505C58.5263 136.519 58.5834 138.482 58.8936 140.487C60.7736 153.173 74.5652 171.983 88.4621 160.676C101.227 150.283 93.2127 132.715 79.4174 128.484C73.7265 126.736 68.1452 127.024 62.9075 128.737C64.9017 118.532 71.5342 109.376 81.0333 104.416C89.4652 99.9908 100.568 98.2324 110.446 100.236C106.194 110.708 105.586 122.711 115.335 128.924C121.083 132.634 128.24 131.116 131.845 125.22C135.833 118.608 134.064 110.627 128.775 105.368C125.168 101.696 120.587 99.1604 115.634 97.6679C120.665 87.9787 130.076 80.8561 140.668 77.1235C149.117 74.1331 158.035 72.5893 166.734 70.4225C175.381 68.1817 183.882 65.2653 191.88 61.4823C204.399 55.6037 215.848 47.5908 224.732 37.0593C225.794 38.0859 226.93 39.06 227.993 40.0866C228.728 41.1227 229.589 42.1803 230.251 43.2689C230.828 44.083 231.788 44.1809 232.507 43.7823C233.614 43.7753 234.641 42.7131 234.581 41.5314C234.751 34.4008 234.952 27.4708 235.228 20.4883C235.287 18.2204 232.218 18.2846 231.41 19.9699ZM83.8714 134.447C89.6505 138.358 93.0254 145.31 90.3248 152.01C87.4118 159.196 79.6269 162.494 72.9001 158.032C67.0471 154.173 63.7152 146.969 62.6606 140.151C62.3099 137.618 62.2648 135.202 62.4202 132.755C69.3695 130.161 77.3237 130.08 83.8714 134.447ZM123.836 106.091C129.655 110.529 133.474 120.615 126.2 125.888C122.869 128.251 118.506 127.119 115.687 124.557C112.299 121.509 111.407 116.801 111.558 112.466C111.718 108.458 112.489 104.684 113.872 101.144C117.529 102.22 120.9 103.835 123.836 106.091Z" fill="white"/>
</g>
<defs>
<clipPath id="clip0_12_4171">
<rect width="270.957" height="73.6336" fill="white" transform="translate(263.775 60.0944) scale(1.0007) rotate(144.643)"/>
</clipPath>
</defs>
</svg>
