<svg width="175" height="270" viewBox="0 0 175 270" fill="none" xmlns="http://www.w3.org/2000/svg">
<path id="Vector" d="M128.919 268.369C129.306 268.44 129.717 268.32 129.991 267.984C130.25 267.609 130.498 267.464 130.972 267.5C131.817 267.568 132.49 267.207 133.191 266.79C133.526 266.6 133.85 266.431 134.186 266.34C134.584 266.231 135.003 266.117 135.33 265.865C135.787 265.514 136.045 264.963 135.97 264.391C135.707 262.376 135.215 260.439 134.289 258.574C132.143 254.373 129.968 250.227 127.574 246.171C125.026 241.859 122.858 237.349 119.638 233.398C118.331 231.797 117.081 230.084 116.287 228.233C114.915 224.941 113.062 221.978 110.988 219.103C110.302 218.158 109.937 216.993 109.456 215.921C108.821 214.593 108.362 213.195 107.611 211.96C105.414 208.14 103.04 204.391 100.931 200.536C99.4826 197.817 98.1504 195.007 97.1418 192.112C96.7483 191.004 96.3704 189.935 95.5965 189.025C94.111 187.361 93.0345 185.442 92.1624 183.396C90.9806 180.706 89.5504 178.161 88.2806 175.506C88.0457 174.921 89.0059 174.576 89.5523 174.891C90.8854 175.659 91.0675 175.886 91.7353 177.239C93.2025 180.131 94.4056 183.129 96.0929 185.933C103.014 197.576 109.35 209.544 116.579 221.064C119.105 225.068 121.251 229.269 123.894 233.181C126.69 237.348 129.924 241.204 131.947 245.862C132.475 247.052 133.4 248.082 134.264 249.091C135.631 250.713 137.532 251.758 139.648 252.446C141.465 253.027 143.169 252.434 144.391 250.768C144.851 250.132 145.22 249.396 145.338 248.671C145.678 246.59 146.238 244.421 146.032 242.38C145.638 238.469 145.728 234.364 142.745 231.132C141.488 229.783 140.562 227.984 141.078 225.833C141.243 225.225 140.928 224.312 140.504 223.894C136.883 220.6 135.819 215.784 132.783 212.165C132.357 211.613 132.192 210.82 132.146 210.07C132.042 208.665 131.429 207.645 130.577 206.541C129.449 205.004 128.774 203.195 127.939 201.496C127.567 200.696 127.239 199.879 126.839 199.135C125.609 196.962 123.838 195.096 123.545 192.456C123.262 189.586 119.824 188.66 119.117 186.005C118.874 185.018 118.631 184.03 118.447 183.064C118.332 182.523 118.39 181.776 118.014 181.475C115.632 179.269 114.745 175.358 113.349 172.426C113.222 172.159 113.1 171.885 112.981 171.606C111.161 167.454 109.37 163.245 106.818 159.433C106.329 158.725 106.03 157.85 105.997 157.005C105.91 155.005 105.533 153.303 103.601 152.18C103.061 151.854 102.805 150.962 102.731 150.268C102.701 149.557 102.992 148.627 103.982 148.546C104.529 148.507 105.376 148.71 105.665 149.046C107.099 151.092 109.147 152.757 109.631 155.365C109.833 156.505 110.667 157.436 111.236 158.473C112.375 160.548 113.543 162.565 114.726 164.622C116.065 167.068 117.055 169.79 118.876 171.908C120.728 174.103 121.759 176.672 123.287 178.952C126.346 183.647 128.191 189.009 132.172 193.198C133.353 194.487 134.129 196.165 134.901 197.708C137.789 203.375 140.793 208.951 145.199 213.692C145.488 214.028 145.732 214.382 146.036 214.757C148.858 218.733 151.592 222.744 154.546 226.667C156.51 229.269 158.706 231.688 160.759 234.255C162.507 236.446 164.519 238.532 165.887 240.921C166.772 242.481 168.789 242.935 170.397 242.14C171.16 241.762 171.919 241.385 172.665 241.004C172.957 240.841 173.281 240.757 173.589 240.633C175.06 240.108 175.457 238.362 174.418 237.197C171.437 233.851 168.86 230.231 166.51 226.431C165.806 225.313 164.985 224.286 164.149 223.22C162.156 220.675 159.434 218.603 158.36 215.417C158.138 214.738 157.477 214.235 156.991 213.661C155.487 211.824 153.955 210.043 152.451 208.205C150.098 205.397 149.248 201.625 146.53 199.054C144.417 197.099 144.333 193.833 141.462 192.408C141.132 192.224 140.913 191.679 140.905 191.275C140.916 189.011 139.477 187.463 138.171 185.863C137.441 184.935 136.579 184.061 136.025 183.063C134.288 180.008 132.711 176.843 130.93 173.806C129.24 170.867 126.994 168.198 125.759 165.122C123.707 159.752 119.808 155.259 118.268 149.639C118.044 148.825 117.524 148.039 116.976 147.31C112.788 141.712 110.458 135.143 107.295 129.044C105.368 125.387 103.969 121.518 102.173 117.809C100.394 114.138 97.8815 110.806 96.3346 106.952C94.7565 103.019 92.2982 99.4402 90.368 95.649C86.0261 86.9942 82.6212 77.8729 77.7952 69.4123C77.335 68.6476 77.2269 67.7417 76.9428 66.9064C76.6587 66.0711 76.5066 65.1828 76.0465 64.4181C73.0882 59.593 71.5382 54.2027 69.4601 49.0243C67.4914 44.1184 64.9945 39.4245 63.1138 34.4834C60.9206 28.7635 56.9385 23.8067 55.4183 17.7264C55.1284 16.6221 54.2948 15.6909 53.6813 14.6714C53.2211 13.9067 52.717 13.1597 52.4045 12.381C51.2482 9.4998 50.2396 6.60451 49.0834 3.72333C48.7084 2.78888 48.1858 1.86847 47.5467 1.03999C46.7386 -0.0822786 45.5956 -0.256479 44.1433 0.326363C41.8987 1.22712 40.1398 2.70148 38.6819 4.41665C37.498 5.79588 36.8537 7.50102 37.1394 9.10418C37.6269 11.8469 37.3789 14.7944 39.4537 17.0357C39.9237 17.5704 40.1766 18.3278 40.4422 18.9897C42.5844 25.0917 44.6825 31.2114 46.8843 37.3347C50.2694 46.9159 53.5949 56.4759 57.068 66.0219C59.5823 72.9239 62.2442 79.8118 64.9786 86.6255C69.1973 97.138 73.2556 107.76 77.9144 118.096C82.5732 128.432 86.1758 139.192 91.7432 149.118C92.3127 150.155 92.6182 151.298 93.0117 152.406C93.0355 152.483 93.0557 152.56 93.0702 152.636C93.2538 153.603 91.8491 153.074 91.4825 152.161C90.038 148.943 88.7695 145.655 87.1205 142.565C85.8721 140.218 84.2872 138.051 82.5859 135.976C80.3364 133.172 79.0239 129.901 77.7995 126.596C77.1716 124.904 76.4146 123.399 75.0414 122.142C74.3924 121.544 73.5646 120.881 73.4594 120.11C72.9761 116.868 71.1128 114.135 70.3214 111.017C69.7914 109.06 68.5857 107.329 67.7321 105.456C66.0277 101.846 64.2068 98.327 62.7665 94.6105C61.123 90.3878 59.8033 86.0805 57.4556 82.1404C56.1816 79.9845 55.0681 77.719 53.9702 75.4925C51.9278 71.2943 50.0017 67.0042 47.8116 62.8201C45.2025 57.7192 42.5054 52.6536 39.6762 47.641C35.9679 40.9469 32.1716 34.2882 28.2588 27.7214C26.8159 25.2717 23.9562 24.3851 20.8415 26.8103C20.2155 27.2876 19.6675 27.9595 19.148 28.5749C18.7678 29.0251 18.3936 29.473 18.0167 29.9286C16.6967 31.5243 15.9923 33.5623 16.1935 35.6234C16.4965 38.7277 17.1822 41.7487 18.9421 44.6151C20.9204 47.8896 22.0939 51.5776 23.6037 55.0854C25.7514 60.0551 27.9146 65.0637 30.0183 70.051C32.5097 75.8773 35.001 81.7035 37.5208 87.4731C40.5377 94.3542 43.627 101.161 46.5999 108.06C49.1822 113.985 51.6921 119.985 54.2743 125.91C57.1847 132.653 60.1547 139.418 63.0211 146.178C63.4158 147.162 62.1438 146.696 61.8342 145.682C61.1688 143.504 60.2186 141.453 58.637 139.71C58.167 139.176 58.0021 138.383 57.6485 137.756C56.9227 136.33 56.1813 134.864 55.4555 133.438C54.886 132.4 54.2724 131.381 53.7469 130.326C51.51 126.025 49.317 121.706 47.08 117.406C46.7704 116.761 46.2407 116.205 45.8274 115.558C44.4811 113.476 43.0467 111.43 41.8608 109.238C40.0584 105.893 38.4165 102.438 36.7022 99.0578C35.3884 96.4207 33.6785 93.9425 32.8644 91.15C32.0035 88.2407 30.3845 85.8616 28.7783 83.387C27.983 82.1692 27.2444 80.8382 26.8892 79.4437C25.8265 75.3949 23.7387 71.8477 21.871 68.2123C20.7291 66.0034 19.2947 63.9571 19.077 61.3774C18.9817 60.3759 18.3554 59.4519 17.9364 58.5351C16.9734 56.3901 15.9224 54.2803 14.9594 52.1353C14.0432 50.107 13.2747 48.0647 12.3146 46.0541C11.3232 43.9657 6.81792 42.9257 4.77932 44.4671C3.08996 45.7327 1.68888 47.3347 0.391435 48.9403C-0.531251 50.0791 0.440107 51.2263 0.641923 52.3658C0.710147 52.7905 0.793994 53.2541 0.774194 53.7141C0.552502 60.6743 2.23188 67.2785 3.89564 73.8437C6.8893 85.8875 10.9109 97.5641 16.416 108.736C21.427 118.93 26.1582 129.192 31.0811 139.422C36.0714 149.824 41.4405 160.029 47.1166 170.111C47.1375 170.149 47.1813 170.175 47.2231 170.184C47.2435 170.187 47.2675 170.184 47.2873 170.19C47.3718 170.217 47.4576 170.233 47.5421 170.243C47.7982 170.272 48.0444 170.136 48.1978 169.929C48.221 169.898 48.2436 169.867 48.2655 169.838C48.4268 169.62 48.6661 169.466 48.9366 169.45C49.8334 169.396 50.6975 169.558 51.5273 169.088C51.6212 169.035 51.6622 168.864 51.5868 168.786C51.5479 168.746 51.5184 168.763 51.4636 168.753C51.2155 168.704 50.86 168.736 51.0488 168.296C51.2319 167.861 51.5996 167.759 52.0043 168.003C52.1708 168.091 52.3402 168.187 52.5219 168.292C52.8725 168.496 53.3499 168.168 53.5899 167.841C53.7263 167.656 53.7602 167.442 53.6641 167.233C53.1084 166.021 52.6632 164.796 52.2051 163.538C51.5119 161.556 50.4695 159.85 49.4838 158.03C46.8492 153.12 43.2335 148.694 42.1521 143.071C42.0838 142.646 41.8679 142.236 41.6237 141.882C38.8955 138.139 37.5885 133.736 35.4325 129.765C34.4 127.828 33.6599 125.729 32.9198 123.631C31.711 120.364 31.1183 116.849 28.8092 114.024C28.3831 113.472 27.9826 112.728 27.9967 111.999C28.0035 110.234 26.9852 108.97 26.1274 107.596C25.5764 106.732 24.774 105.879 24.5907 104.913C23.8944 101.395 22.0098 98.354 20.977 95.0164C20.9402 94.8882 20.863 94.7539 20.7967 94.6175C20.4524 93.9091 21.7349 93.9593 22.1085 94.6527C25.51 100.837 28.9272 107.06 32.2848 113.262C36.8907 121.811 41.4087 130.395 46.0147 138.944C47.1537 141.018 48.3652 143.019 49.5042 145.093C51.8292 149.359 53.9058 153.769 56.5672 157.855C58.1938 160.35 59.6895 162.858 61.1539 165.413C61.3163 165.697 61.6579 165.796 61.9765 165.869C61.997 165.873 62.0175 165.879 62.038 165.885C62.2575 165.952 62.3381 166.243 62.2342 166.448C62.1018 166.708 62.0551 166.997 62.1993 167.251C64.5409 171.379 66.8259 175.568 69.3693 179.569C74.1 187.028 77.837 195.067 82.4073 202.636C85.3969 207.539 88.3581 212.498 91.4357 217.366C94.4224 222.134 97.5539 226.754 100.585 231.505C103.246 235.591 105.82 239.711 108.525 243.779C112.009 249.659 115.751 255.164 119.493 260.669C120.53 262.157 121.568 263.645 122.605 265.132C122.686 265.249 122.837 265.278 122.98 265.283C123.874 265.225 124.585 264.813 125.275 264.36C126.552 263.52 127.894 262.51 129.412 262.34C130.063 262.305 130.635 262.075 131.173 261.633C131.755 261.173 132.503 260.873 133.251 260.573C133.471 260.485 133.904 260.672 134.027 260.849C134.24 261.126 133.89 261.401 133.642 261.546C133.525 261.638 133.422 261.635 133.29 261.688C131.209 262.613 129.112 263.5 127.002 264.482C125.071 265.329 124.519 267.878 125.747 269.591C125.773 269.628 125.799 269.664 125.826 269.701C125.968 269.856 126.159 269.906 126.336 269.792C126.696 269.558 127.057 269.283 127.363 268.948C127.813 268.542 128.251 268.23 128.919 268.369ZM127.401 171.505C127.706 172.265 126.928 172.782 126.537 172.062C126.458 171.916 126.386 171.768 126.32 171.618C126.208 171.365 126.334 171.075 126.587 170.962C126.863 170.838 127.186 170.968 127.298 171.249L127.401 171.505ZM124.955 167.997C125.064 168.056 125.06 168.202 124.978 168.295C124.958 168.318 124.937 168.342 124.917 168.365C124.834 168.459 124.685 168.43 124.639 168.315C124.613 168.251 124.628 168.178 124.667 168.123C124.686 168.097 124.704 168.07 124.722 168.045C124.767 167.98 124.845 167.947 124.917 167.979C124.93 167.984 124.942 167.991 124.955 167.997ZM121.447 161.766C121.488 161.862 121.44 161.973 121.343 162.012C121.246 162.051 121.135 162.004 121.096 161.906L120.622 160.723C120.595 160.657 120.644 160.575 120.71 160.548C120.768 160.525 120.818 160.553 120.85 160.606C121.072 160.964 121.273 161.357 121.447 161.766ZM92.1748 124.651C91.9556 124.573 91.8835 124.292 92.0428 124.122C92.1614 123.996 92.3566 124.001 92.4864 124.116C92.5743 124.193 92.6608 124.276 92.7329 124.374C92.7595 124.41 92.771 124.453 92.7483 124.492C92.7213 124.538 92.6744 124.601 92.6261 124.655C92.5526 124.737 92.4398 124.745 92.3359 124.708C92.2804 124.689 92.2269 124.669 92.1748 124.651ZM94.4823 129.537C94.4578 129.127 94.9027 128.631 95.2431 128.862C95.2831 128.889 95.2884 128.916 95.3093 128.959C95.5273 129.412 95.745 129.864 95.9626 130.318C97.0731 132.631 95.1876 133.709 94.6947 131.191C94.5848 130.629 94.5147 130.079 94.4823 129.537ZM65.1333 151.466C65.1231 151.447 65.1328 151.424 65.1407 151.403C65.1535 151.371 65.1716 151.34 65.1938 151.31C65.3065 151.158 65.6146 151.206 65.632 151.394C65.6332 151.408 65.6332 151.417 65.6299 151.43C65.5877 151.597 65.3079 151.628 65.1774 151.515C65.1565 151.497 65.141 151.481 65.1333 151.466ZM79.7442 156.079C79.7494 156.004 79.8312 155.96 79.897 155.997C79.9725 156.039 79.9653 156.15 79.8851 156.182C79.8146 156.21 79.7389 156.155 79.7442 156.079ZM81.5899 160.495C81.4922 160.41 81.4585 160.277 81.4933 160.152C81.5561 159.928 81.8344 159.823 82.01 159.976C82.0923 160.048 82.1602 160.127 82.1997 160.226C82.2128 160.258 82.2169 160.297 82.2146 160.339C82.1996 160.61 81.823 160.695 81.6166 160.518C81.6076 160.51 81.5987 160.503 81.5899 160.495ZM85.5288 169.57C84.9756 168.815 86.2305 167.854 86.4851 168.755C86.5001 168.808 86.5147 168.863 86.5291 168.921C86.7028 169.618 85.9533 170.149 85.5288 169.57ZM134.192 263.044C134.459 263.139 134.726 263.234 134.676 263.494C134.633 263.721 134.418 263.806 134.189 263.781C133.769 263.736 133.367 263.216 133.751 263.039C133.878 262.98 134.024 262.984 134.192 263.044ZM130.36 264.977C130.361 264.951 130.376 264.937 130.403 264.938C130.413 264.938 130.424 264.939 130.436 264.94C130.485 264.945 130.504 265.004 130.464 265.032C130.458 265.036 130.451 265.041 130.444 265.045C130.406 265.071 130.358 265.024 130.36 264.977ZM131.709 264.644C131.953 264.662 132.058 265.119 131.834 265.217C131.822 265.223 131.809 265.226 131.797 265.225C131.732 265.231 131.658 265.215 131.595 265.183C131.452 265.111 131.442 264.912 131.532 264.78C131.561 264.738 131.593 264.7 131.622 264.674C131.649 264.651 131.674 264.642 131.709 264.644ZM125.115 267.526C125.059 267.483 125.042 267.397 125.089 267.344C125.094 267.338 125.099 267.333 125.103 267.329C125.116 267.318 125.133 267.315 125.149 267.317C125.174 267.32 125.197 267.326 125.22 267.334C125.291 267.356 125.312 267.477 125.267 267.536C125.241 267.571 125.202 267.578 125.164 267.558C125.145 267.548 125.129 267.537 125.115 267.526ZM128.062 266.628C128.031 266.588 128.055 266.566 128.07 266.518C128.118 266.361 128.247 266.198 128.355 266.045C128.372 266.021 128.385 266.004 128.414 266.001C128.497 265.994 128.604 266.036 128.643 266.109C128.668 266.154 128.688 266.198 128.687 266.23C128.686 266.243 128.68 266.256 128.675 266.268C128.646 266.355 128.613 266.436 128.575 266.514C128.485 266.7 128.19 266.791 128.062 266.628Z" fill="#229EBF"/>
</svg>
